<svg width="1363" height="163" viewBox="0 0 1363 163" fill="none" xmlns="http://www.w3.org/2000/svg">
<path d="M0 15C0 6.71573 6.71573 0 15 0H37V163H15C6.71573 163 0 156.284 0 148V15Z" fill="#23BA32"/>
<rect width="1097" height="163" transform="translate(37)" fill="#F0F0F0"/>
<path d="M101.906 53.9219L94.3945 51.2383V48.0859L104.602 52.375V54.6367L101.906 53.9219ZM94.3945 56.1719L101.918 53.4297L104.602 52.7852V55.0352L94.3945 59.3242V56.1719ZM116.414 43.9375V61H112.898V43.9375H116.414ZM123.211 51.2266V53.9688H115.453V51.2266H123.211ZM124.031 43.9375V46.6914H115.453V43.9375H124.031ZM129.422 43V61H126.035V43H129.422ZM131.672 54.7891V54.543C131.672 53.6133 131.805 52.7578 132.07 51.9766C132.336 51.1875 132.723 50.5039 133.23 49.9258C133.738 49.3477 134.363 48.8984 135.105 48.5781C135.848 48.25 136.699 48.0859 137.66 48.0859C138.621 48.0859 139.477 48.25 140.227 48.5781C140.977 48.8984 141.605 49.3477 142.113 49.9258C142.629 50.5039 143.02 51.1875 143.285 51.9766C143.551 52.7578 143.684 53.6133 143.684 54.543V54.7891C143.684 55.7109 143.551 56.5664 143.285 57.3555C143.02 58.1367 142.629 58.8203 142.113 59.4062C141.605 59.9844 140.98 60.4336 140.238 60.7539C139.496 61.0742 138.645 61.2344 137.684 61.2344C136.723 61.2344 135.867 61.0742 135.117 60.7539C134.375 60.4336 133.746 59.9844 133.23 59.4062C132.723 58.8203 132.336 58.1367 132.07 57.3555C131.805 56.5664 131.672 55.7109 131.672 54.7891ZM135.047 54.543V54.7891C135.047 55.3203 135.094 55.8164 135.188 56.2773C135.281 56.7383 135.43 57.1445 135.633 57.4961C135.844 57.8398 136.117 58.1094 136.453 58.3047C136.789 58.5 137.199 58.5977 137.684 58.5977C138.152 58.5977 138.555 58.5 138.891 58.3047C139.227 58.1094 139.496 57.8398 139.699 57.4961C139.902 57.1445 140.051 56.7383 140.145 56.2773C140.246 55.8164 140.297 55.3203 140.297 54.7891V54.543C140.297 54.0273 140.246 53.543 140.145 53.0898C140.051 52.6289 139.898 52.2227 139.688 51.8711C139.484 51.5117 139.215 51.2305 138.879 51.0273C138.543 50.8242 138.137 50.7227 137.66 50.7227C137.184 50.7227 136.777 50.8242 136.441 51.0273C136.113 51.2305 135.844 51.5117 135.633 51.8711C135.43 52.2227 135.281 52.6289 135.188 53.0898C135.094 53.543 135.047 54.0273 135.047 54.543ZM149.133 51.0859V61H145.758V48.3203H148.934L149.133 51.0859ZM152.953 48.2383L152.895 51.3672C152.73 51.3438 152.531 51.3242 152.297 51.3086C152.07 51.2852 151.863 51.2734 151.676 51.2734C151.199 51.2734 150.785 51.3359 150.434 51.4609C150.09 51.5781 149.801 51.7539 149.566 51.9883C149.34 52.2227 149.168 52.5078 149.051 52.8438C148.941 53.1797 148.879 53.5625 148.863 53.9922L148.184 53.7812C148.184 52.9609 148.266 52.207 148.43 51.5195C148.594 50.8242 148.832 50.2188 149.145 49.7031C149.465 49.1875 149.855 48.7891 150.316 48.5078C150.777 48.2266 151.305 48.0859 151.898 48.0859C152.086 48.0859 152.277 48.1016 152.473 48.1328C152.668 48.1562 152.828 48.1914 152.953 48.2383ZM160.992 58.1406V52.4922C160.992 52.0859 160.926 51.7383 160.793 51.4492C160.66 51.1523 160.453 50.9219 160.172 50.7578C159.898 50.5938 159.543 50.5117 159.105 50.5117C158.73 50.5117 158.406 50.5781 158.133 50.7109C157.859 50.8359 157.648 51.0195 157.5 51.2617C157.352 51.4961 157.277 51.7734 157.277 52.0938H153.902C153.902 51.5547 154.027 51.043 154.277 50.5586C154.527 50.0742 154.891 49.6484 155.367 49.2812C155.844 48.9062 156.41 48.6133 157.066 48.4023C157.73 48.1914 158.473 48.0859 159.293 48.0859C160.277 48.0859 161.152 48.25 161.918 48.5781C162.684 48.9062 163.285 49.3984 163.723 50.0547C164.168 50.7109 164.391 51.5312 164.391 52.5156V57.9414C164.391 58.6367 164.434 59.207 164.52 59.6523C164.605 60.0898 164.73 60.4727 164.895 60.8008V61H161.484C161.32 60.6562 161.195 60.2266 161.109 59.7109C161.031 59.1875 160.992 58.6641 160.992 58.1406ZM161.438 53.2773L161.461 55.1875H159.574C159.129 55.1875 158.742 55.2383 158.414 55.3398C158.086 55.4414 157.816 55.5859 157.605 55.7734C157.395 55.9531 157.238 56.1641 157.137 56.4062C157.043 56.6484 156.996 56.9141 156.996 57.2031C156.996 57.4922 157.062 57.7539 157.195 57.9883C157.328 58.2148 157.52 58.3945 157.77 58.5273C158.02 58.6523 158.312 58.7148 158.648 58.7148C159.156 58.7148 159.598 58.6133 159.973 58.4102C160.348 58.207 160.637 57.957 160.84 57.6602C161.051 57.3633 161.16 57.082 161.168 56.8164L162.059 58.2461C161.934 58.5664 161.762 58.8984 161.543 59.2422C161.332 59.5859 161.062 59.9102 160.734 60.2148C160.406 60.5117 160.012 60.7578 159.551 60.9531C159.09 61.1406 158.543 61.2344 157.91 61.2344C157.105 61.2344 156.375 61.0742 155.719 60.7539C155.07 60.4258 154.555 59.9766 154.172 59.4062C153.797 58.8281 153.609 58.1719 153.609 57.4375C153.609 56.7734 153.734 56.1836 153.984 55.668C154.234 55.1523 154.602 54.7188 155.086 54.3672C155.578 54.0078 156.191 53.7383 156.926 53.5586C157.66 53.3711 158.512 53.2773 159.48 53.2773H161.438ZM171.117 58.5391L173.93 48.3203H177.457L173.18 61H171.047L171.117 58.5391ZM169.184 48.3203L172.008 58.5508L172.066 61H169.922L165.645 48.3203H169.184ZM184.641 61.2344C183.656 61.2344 182.773 61.0781 181.992 60.7656C181.211 60.4453 180.547 60.0039 180 59.4414C179.461 58.8789 179.047 58.2266 178.758 57.4844C178.469 56.7344 178.324 55.9375 178.324 55.0938V54.625C178.324 53.6641 178.461 52.7852 178.734 51.9883C179.008 51.1914 179.398 50.5 179.906 49.9141C180.422 49.3281 181.047 48.8789 181.781 48.5664C182.516 48.2461 183.344 48.0859 184.266 48.0859C185.164 48.0859 185.961 48.2344 186.656 48.5312C187.352 48.8281 187.934 49.25 188.402 49.7969C188.879 50.3438 189.238 51 189.48 51.7656C189.723 52.5234 189.844 53.3672 189.844 54.2969V55.7031H179.766V53.4531H186.527V53.1953C186.527 52.7266 186.441 52.3086 186.27 51.9414C186.105 51.5664 185.855 51.2695 185.52 51.0508C185.184 50.832 184.754 50.7227 184.23 50.7227C183.785 50.7227 183.402 50.8203 183.082 51.0156C182.762 51.2109 182.5 51.4844 182.297 51.8359C182.102 52.1875 181.953 52.6016 181.852 53.0781C181.758 53.5469 181.711 54.0625 181.711 54.625V55.0938C181.711 55.6016 181.781 56.0703 181.922 56.5C182.07 56.9297 182.277 57.3008 182.543 57.6133C182.816 57.9258 183.145 58.168 183.527 58.3398C183.918 58.5117 184.359 58.5977 184.852 58.5977C185.461 58.5977 186.027 58.4805 186.551 58.2461C187.082 58.0039 187.539 57.6406 187.922 57.1562L189.562 58.9375C189.297 59.3203 188.934 59.6875 188.473 60.0391C188.02 60.3906 187.473 60.6797 186.832 60.9062C186.191 61.125 185.461 61.2344 184.641 61.2344ZM195.141 51.0859V61H191.766V48.3203H194.941L195.141 51.0859ZM198.961 48.2383L198.902 51.3672C198.738 51.3438 198.539 51.3242 198.305 51.3086C198.078 51.2852 197.871 51.2734 197.684 51.2734C197.207 51.2734 196.793 51.3359 196.441 51.4609C196.098 51.5781 195.809 51.7539 195.574 51.9883C195.348 52.2227 195.176 52.5078 195.059 52.8438C194.949 53.1797 194.887 53.5625 194.871 53.9922L194.191 53.7812C194.191 52.9609 194.273 52.207 194.438 51.5195C194.602 50.8242 194.84 50.2188 195.152 49.7031C195.473 49.1875 195.863 48.7891 196.324 48.5078C196.785 48.2266 197.312 48.0859 197.906 48.0859C198.094 48.0859 198.285 48.1016 198.48 48.1328C198.676 48.1562 198.836 48.1914 198.961 48.2383ZM207.352 48.3203V50.7109H199.969V48.3203H207.352ZM201.797 45.1914H205.172V57.1797C205.172 57.5469 205.219 57.8281 205.312 58.0234C205.414 58.2188 205.562 58.3555 205.758 58.4336C205.953 58.5039 206.199 58.5391 206.496 58.5391C206.707 58.5391 206.895 58.5312 207.059 58.5156C207.23 58.4922 207.375 58.4688 207.492 58.4453L207.504 60.9297C207.215 61.0234 206.902 61.0977 206.566 61.1523C206.23 61.207 205.859 61.2344 205.453 61.2344C204.711 61.2344 204.062 61.1133 203.508 60.8711C202.961 60.6211 202.539 60.2227 202.242 59.6758C201.945 59.1289 201.797 58.4102 201.797 57.5195V45.1914Z" fill="#888888"/>
<path d="M109.219 107.422H100.734V101.07H109.219C110.375 101.07 111.312 100.875 112.031 100.484C112.75 100.094 113.273 99.5547 113.602 98.8672C113.945 98.1641 114.117 97.375 114.117 96.5C114.117 95.5625 113.945 94.6953 113.602 93.8984C113.273 93.1016 112.75 92.4609 112.031 91.9766C111.312 91.4766 110.375 91.2266 109.219 91.2266H103.828V119H95.6016V84.875H109.219C111.953 84.875 114.305 85.375 116.273 86.375C118.258 87.375 119.781 88.75 120.844 90.5C121.906 92.2344 122.438 94.2188 122.438 96.4531C122.438 98.6562 121.906 100.578 120.844 102.219C119.781 103.859 118.258 105.141 116.273 106.062C114.305 106.969 111.953 107.422 109.219 107.422ZM138.445 119.469C136.383 119.469 134.539 119.148 132.914 118.508C131.289 117.852 129.914 116.953 128.789 115.812C127.68 114.672 126.828 113.359 126.234 111.875C125.656 110.391 125.367 108.82 125.367 107.164V106.273C125.367 104.414 125.625 102.695 126.141 101.117C126.656 99.5234 127.422 98.1328 128.438 96.9453C129.453 95.7578 130.727 94.8359 132.258 94.1797C133.789 93.5078 135.57 93.1719 137.602 93.1719C139.398 93.1719 141.008 93.4609 142.43 94.0391C143.852 94.6172 145.055 95.4453 146.039 96.5234C147.039 97.6016 147.797 98.9062 148.312 100.438C148.844 101.969 149.109 103.688 149.109 105.594V108.805H128.391V103.859H141.398V103.25C141.414 102.406 141.266 101.688 140.953 101.094C140.656 100.5 140.219 100.047 139.641 99.7344C139.062 99.4219 138.359 99.2656 137.531 99.2656C136.672 99.2656 135.961 99.4531 135.398 99.8281C134.852 100.203 134.422 100.719 134.109 101.375C133.812 102.016 133.602 102.758 133.477 103.602C133.352 104.445 133.289 105.336 133.289 106.273V107.164C133.289 108.102 133.414 108.953 133.664 109.719C133.93 110.484 134.305 111.141 134.789 111.688C135.289 112.219 135.883 112.633 136.57 112.93C137.273 113.227 138.07 113.375 138.961 113.375C140.039 113.375 141.102 113.172 142.148 112.766C143.195 112.359 144.094 111.688 144.844 110.75L148.43 115.016C147.914 115.75 147.18 116.461 146.227 117.148C145.289 117.836 144.164 118.398 142.852 118.836C141.539 119.258 140.07 119.469 138.445 119.469ZM160.289 99.9219V119H152.391V93.6406H159.773L160.289 99.9219ZM167.789 93.4531L167.648 100.789C167.336 100.758 166.914 100.719 166.383 100.672C165.852 100.625 165.406 100.602 165.047 100.602C164.125 100.602 163.328 100.711 162.656 100.93C162 101.133 161.453 101.445 161.016 101.867C160.594 102.273 160.281 102.789 160.078 103.414C159.891 104.039 159.805 104.766 159.82 105.594L158.391 104.656C158.391 102.953 158.555 101.406 158.883 100.016C159.227 98.6094 159.711 97.3984 160.336 96.3828C160.961 95.3516 161.719 94.5625 162.609 94.0156C163.5 93.4531 164.5 93.1719 165.609 93.1719C166 93.1719 166.383 93.1953 166.758 93.2422C167.148 93.2891 167.492 93.3594 167.789 93.4531ZM180.703 119H172.758V91.5781C172.758 89.6094 173.156 87.9531 173.953 86.6094C174.75 85.2656 175.875 84.25 177.328 83.5625C178.781 82.8594 180.5 82.5078 182.484 82.5078C183.172 82.5078 183.82 82.5547 184.43 82.6484C185.039 82.7422 185.633 82.8594 186.211 83L186.234 88.8125C185.953 88.7344 185.664 88.6797 185.367 88.6484C185.07 88.6172 184.703 88.6016 184.266 88.6016C183.5 88.6016 182.852 88.7188 182.32 88.9531C181.789 89.1719 181.383 89.5078 181.102 89.9609C180.836 90.3984 180.703 90.9375 180.703 91.5781V119ZM185.625 93.6406V99.125H169.102V93.6406H185.625ZM187.477 106.578V106.086C187.477 104.227 187.742 102.516 188.273 100.953C188.805 99.375 189.586 98.0078 190.617 96.8516C191.648 95.6953 192.922 94.7969 194.438 94.1562C195.953 93.5 197.703 93.1719 199.688 93.1719C201.688 93.1719 203.445 93.5 204.961 94.1562C206.492 94.7969 207.773 95.6953 208.805 96.8516C209.836 98.0078 210.617 99.375 211.148 100.953C211.68 102.516 211.945 104.227 211.945 106.086V106.578C211.945 108.422 211.68 110.133 211.148 111.711C210.617 113.273 209.836 114.641 208.805 115.812C207.773 116.969 206.5 117.867 204.984 118.508C203.469 119.148 201.719 119.469 199.734 119.469C197.75 119.469 195.992 119.148 194.461 118.508C192.93 117.867 191.648 116.969 190.617 115.812C189.586 114.641 188.805 113.273 188.273 111.711C187.742 110.133 187.477 108.422 187.477 106.578ZM195.375 106.086V106.578C195.375 107.531 195.445 108.422 195.586 109.25C195.727 110.078 195.961 110.805 196.289 111.43C196.617 112.039 197.062 112.516 197.625 112.859C198.188 113.203 198.891 113.375 199.734 113.375C200.562 113.375 201.25 113.203 201.797 112.859C202.359 112.516 202.805 112.039 203.133 111.43C203.461 110.805 203.695 110.078 203.836 109.25C203.977 108.422 204.047 107.531 204.047 106.578V106.086C204.047 105.164 203.977 104.297 203.836 103.484C203.695 102.656 203.461 101.93 203.133 101.305C202.805 100.664 202.359 100.164 201.797 99.8047C201.234 99.4453 200.531 99.2656 199.688 99.2656C198.859 99.2656 198.164 99.4453 197.602 99.8047C197.055 100.164 196.617 100.664 196.289 101.305C195.961 101.93 195.727 102.656 195.586 103.484C195.445 104.297 195.375 105.164 195.375 106.086ZM223.43 99.9219V119H215.531V93.6406H222.914L223.43 99.9219ZM230.93 93.4531L230.789 100.789C230.477 100.758 230.055 100.719 229.523 100.672C228.992 100.625 228.547 100.602 228.188 100.602C227.266 100.602 226.469 100.711 225.797 100.93C225.141 101.133 224.594 101.445 224.156 101.867C223.734 102.273 223.422 102.789 223.219 103.414C223.031 104.039 222.945 104.766 222.961 105.594L221.531 104.656C221.531 102.953 221.695 101.406 222.023 100.016C222.367 98.6094 222.852 97.3984 223.477 96.3828C224.102 95.3516 224.859 94.5625 225.75 94.0156C226.641 93.4531 227.641 93.1719 228.75 93.1719C229.141 93.1719 229.523 93.1953 229.898 93.2422C230.289 93.2891 230.633 93.3594 230.93 93.4531ZM241.617 99.0078V119H233.719V93.6406H241.125L241.617 99.0078ZM240.656 105.453L238.852 105.5C238.852 103.719 239.062 102.078 239.484 100.578C239.906 99.0781 240.531 97.7734 241.359 96.6641C242.188 95.5547 243.203 94.6953 244.406 94.0859C245.625 93.4766 247.031 93.1719 248.625 93.1719C249.734 93.1719 250.742 93.3438 251.648 93.6875C252.555 94.0156 253.336 94.5391 253.992 95.2578C254.648 95.9609 255.148 96.8828 255.492 98.0234C255.852 99.1484 256.031 100.5 256.031 102.078V119H248.133V103.086C248.133 102.008 248.008 101.195 247.758 100.648C247.523 100.102 247.18 99.7344 246.727 99.5469C246.273 99.3594 245.719 99.2656 245.062 99.2656C244.375 99.2656 243.758 99.4219 243.211 99.7344C242.664 100.047 242.195 100.484 241.805 101.047C241.43 101.594 241.141 102.242 240.938 102.992C240.75 103.742 240.656 104.562 240.656 105.453ZM255.141 105.453L252.938 105.5C252.938 103.719 253.133 102.078 253.523 100.578C253.93 99.0781 254.531 97.7734 255.328 96.6641C256.141 95.5547 257.148 94.6953 258.352 94.0859C259.555 93.4766 260.953 93.1719 262.547 93.1719C263.703 93.1719 264.766 93.3438 265.734 93.6875C266.703 94.0312 267.539 94.5859 268.242 95.3516C268.945 96.1172 269.492 97.1328 269.883 98.3984C270.273 99.6484 270.469 101.195 270.469 103.039V119H262.547V103.039C262.547 101.992 262.422 101.203 262.172 100.672C261.938 100.125 261.594 99.7578 261.141 99.5703C260.688 99.3672 260.148 99.2656 259.523 99.2656C258.773 99.2656 258.125 99.4219 257.578 99.7344C257.031 100.047 256.57 100.484 256.195 101.047C255.836 101.594 255.57 102.242 255.398 102.992C255.227 103.742 255.141 104.562 255.141 105.453ZM288.164 112.625V102.172C288.164 101.453 288.062 100.836 287.859 100.32C287.656 99.8047 287.336 99.4062 286.898 99.125C286.461 98.8281 285.875 98.6797 285.141 98.6797C284.547 98.6797 284.039 98.7812 283.617 98.9844C283.195 99.1875 282.875 99.4922 282.656 99.8984C282.438 100.305 282.328 100.82 282.328 101.445H274.43C274.43 100.273 274.688 99.1875 275.203 98.1875C275.734 97.1719 276.484 96.2891 277.453 95.5391C278.438 94.7891 279.609 94.2109 280.969 93.8047C282.344 93.3828 283.875 93.1719 285.562 93.1719C287.578 93.1719 289.375 93.5078 290.953 94.1797C292.547 94.8516 293.805 95.8594 294.727 97.2031C295.648 98.5312 296.109 100.203 296.109 102.219V112.602C296.109 114.258 296.203 115.516 296.391 116.375C296.578 117.219 296.844 117.961 297.188 118.602V119H289.266C288.891 118.219 288.609 117.266 288.422 116.141C288.25 115 288.164 113.828 288.164 112.625ZM289.125 103.508L289.172 107.727H285.68C284.945 107.727 284.32 107.828 283.805 108.031C283.305 108.234 282.898 108.516 282.586 108.875C282.289 109.219 282.07 109.609 281.93 110.047C281.805 110.484 281.742 110.945 281.742 111.43C281.742 111.898 281.852 112.32 282.07 112.695C282.305 113.055 282.617 113.336 283.008 113.539C283.398 113.742 283.836 113.844 284.32 113.844C285.195 113.844 285.938 113.68 286.547 113.352C287.172 113.008 287.648 112.594 287.977 112.109C288.305 111.625 288.469 111.172 288.469 110.75L290.203 113.984C289.891 114.609 289.531 115.242 289.125 115.883C288.734 116.523 288.242 117.117 287.648 117.664C287.07 118.195 286.359 118.633 285.516 118.977C284.672 119.305 283.648 119.469 282.445 119.469C280.883 119.469 279.445 119.148 278.133 118.508C276.836 117.867 275.797 116.977 275.016 115.836C274.234 114.68 273.844 113.352 273.844 111.852C273.844 110.539 274.078 109.367 274.547 108.336C275.031 107.305 275.758 106.43 276.727 105.711C277.695 104.992 278.93 104.445 280.43 104.07C281.93 103.695 283.695 103.508 285.727 103.508H289.125ZM308.25 99.0547V119H300.352V93.6406H307.758L308.25 99.0547ZM307.312 105.453L305.461 105.5C305.461 103.562 305.695 101.836 306.164 100.32C306.633 98.7891 307.297 97.4922 308.156 96.4297C309.016 95.3672 310.039 94.5625 311.227 94.0156C312.43 93.4531 313.766 93.1719 315.234 93.1719C316.406 93.1719 317.477 93.3438 318.445 93.6875C319.43 94.0312 320.273 94.5859 320.977 95.3516C321.695 96.1172 322.242 97.1328 322.617 98.3984C323.008 99.6484 323.203 101.195 323.203 103.039V119H315.258V103.016C315.258 102 315.117 101.227 314.836 100.695C314.555 100.148 314.148 99.7734 313.617 99.5703C313.086 99.3672 312.438 99.2656 311.672 99.2656C310.859 99.2656 310.172 99.4219 309.609 99.7344C309.047 100.047 308.594 100.484 308.25 101.047C307.922 101.594 307.68 102.242 307.523 102.992C307.383 103.742 307.312 104.562 307.312 105.453ZM338.297 113.375C339.031 113.375 339.656 113.242 340.172 112.977C340.703 112.695 341.102 112.305 341.367 111.805C341.648 111.289 341.781 110.672 341.766 109.953H349.195C349.211 111.859 348.742 113.531 347.789 114.969C346.852 116.391 345.57 117.5 343.945 118.297C342.336 119.078 340.516 119.469 338.484 119.469C336.5 119.469 334.766 119.148 333.281 118.508C331.797 117.852 330.555 116.945 329.555 115.789C328.57 114.617 327.828 113.25 327.328 111.688C326.844 110.125 326.602 108.43 326.602 106.602V106.062C326.602 104.234 326.844 102.539 327.328 100.977C327.828 99.3984 328.57 98.0312 329.555 96.875C330.555 95.7031 331.789 94.7969 333.258 94.1562C334.742 93.5 336.469 93.1719 338.438 93.1719C340.547 93.1719 342.406 93.5703 344.016 94.3672C345.641 95.1641 346.914 96.3203 347.836 97.8359C348.758 99.3516 349.211 101.188 349.195 103.344H341.766C341.781 102.578 341.664 101.891 341.414 101.281C341.164 100.672 340.773 100.188 340.242 99.8281C339.727 99.4531 339.062 99.2656 338.25 99.2656C337.438 99.2656 336.781 99.4453 336.281 99.8047C335.781 100.164 335.398 100.664 335.133 101.305C334.883 101.93 334.711 102.648 334.617 103.461C334.539 104.273 334.5 105.141 334.5 106.062V106.602C334.5 107.539 334.539 108.422 334.617 109.25C334.711 110.062 334.891 110.781 335.156 111.406C335.422 112.016 335.805 112.5 336.305 112.859C336.805 113.203 337.469 113.375 338.297 113.375ZM364.852 119.469C362.789 119.469 360.945 119.148 359.32 118.508C357.695 117.852 356.32 116.953 355.195 115.812C354.086 114.672 353.234 113.359 352.641 111.875C352.062 110.391 351.773 108.82 351.773 107.164V106.273C351.773 104.414 352.031 102.695 352.547 101.117C353.062 99.5234 353.828 98.1328 354.844 96.9453C355.859 95.7578 357.133 94.8359 358.664 94.1797C360.195 93.5078 361.977 93.1719 364.008 93.1719C365.805 93.1719 367.414 93.4609 368.836 94.0391C370.258 94.6172 371.461 95.4453 372.445 96.5234C373.445 97.6016 374.203 98.9062 374.719 100.438C375.25 101.969 375.516 103.688 375.516 105.594V108.805H354.797V103.859H367.805V103.25C367.82 102.406 367.672 101.688 367.359 101.094C367.062 100.5 366.625 100.047 366.047 99.7344C365.469 99.4219 364.766 99.2656 363.938 99.2656C363.078 99.2656 362.367 99.4531 361.805 99.8281C361.258 100.203 360.828 100.719 360.516 101.375C360.219 102.016 360.008 102.758 359.883 103.602C359.758 104.445 359.695 105.336 359.695 106.273V107.164C359.695 108.102 359.82 108.953 360.07 109.719C360.336 110.484 360.711 111.141 361.195 111.688C361.695 112.219 362.289 112.633 362.977 112.93C363.68 113.227 364.477 113.375 365.367 113.375C366.445 113.375 367.508 113.172 368.555 112.766C369.602 112.359 370.5 111.688 371.25 110.75L374.836 115.016C374.32 115.75 373.586 116.461 372.633 117.148C371.695 117.836 370.57 118.398 369.258 118.836C367.945 119.258 366.477 119.469 364.852 119.469Z" fill="black"/>
<path d="M1134 0H1348C1356.28 0 1363 6.71573 1363 15V148C1363 156.284 1356.28 163 1348 163H1134V0Z" fill="#23BA32"/>
<path d="M1252.21 54L1222.8 83.6187C1221.53 84.8944 1220.9 85.5321 1220.89 86.0699C1220.89 86.5374 1221.14 86.9814 1221.58 87.2741C1222.09 87.6111 1223.09 87.6111 1225.09 87.6111H1248.5L1244.79 109L1274.2 79.3813C1275.47 78.1056 1276.1 77.4679 1276.11 76.9301C1276.12 76.4626 1275.86 76.0186 1275.42 75.7259C1274.91 75.3889 1273.91 75.3889 1271.91 75.3889H1248.5L1252.21 54Z" stroke="white" stroke-width="4" stroke-linecap="round" stroke-linejoin="round"/>
</svg>
