<svg width="1363" height="163" viewBox="0 0 1363 163" fill="none" xmlns="http://www.w3.org/2000/svg">
<path d="M0 15C0 6.71573 6.71573 0 15 0H37V163H15C6.71573 163 0 156.284 0 148V15Z" fill="#424242"/>
<rect width="1097" height="163" transform="translate(37)" fill="#F0F0F0"/>
<path d="M101.906 53.9219L94.3945 51.2383V48.0859L104.602 52.375V54.6367L101.906 53.9219ZM94.3945 56.1719L101.918 53.4297L104.602 52.7852V55.0352L94.3945 59.3242V56.1719ZM116.414 43.9375V61H112.898V43.9375H116.414ZM123.211 51.2266V53.9688H115.453V51.2266H123.211ZM124.031 43.9375V46.6914H115.453V43.9375H124.031ZM129.422 43V61H126.035V43H129.422ZM131.672 54.7891V54.543C131.672 53.6133 131.805 52.7578 132.07 51.9766C132.336 51.1875 132.723 50.5039 133.23 49.9258C133.738 49.3477 134.363 48.8984 135.105 48.5781C135.848 48.25 136.699 48.0859 137.66 48.0859C138.621 48.0859 139.477 48.25 140.227 48.5781C140.977 48.8984 141.605 49.3477 142.113 49.9258C142.629 50.5039 143.02 51.1875 143.285 51.9766C143.551 52.7578 143.684 53.6133 143.684 54.543V54.7891C143.684 55.7109 143.551 56.5664 143.285 57.3555C143.02 58.1367 142.629 58.8203 142.113 59.4062C141.605 59.9844 140.98 60.4336 140.238 60.7539C139.496 61.0742 138.645 61.2344 137.684 61.2344C136.723 61.2344 135.867 61.0742 135.117 60.7539C134.375 60.4336 133.746 59.9844 133.23 59.4062C132.723 58.8203 132.336 58.1367 132.07 57.3555C131.805 56.5664 131.672 55.7109 131.672 54.7891ZM135.047 54.543V54.7891C135.047 55.3203 135.094 55.8164 135.188 56.2773C135.281 56.7383 135.43 57.1445 135.633 57.4961C135.844 57.8398 136.117 58.1094 136.453 58.3047C136.789 58.5 137.199 58.5977 137.684 58.5977C138.152 58.5977 138.555 58.5 138.891 58.3047C139.227 58.1094 139.496 57.8398 139.699 57.4961C139.902 57.1445 140.051 56.7383 140.145 56.2773C140.246 55.8164 140.297 55.3203 140.297 54.7891V54.543C140.297 54.0273 140.246 53.543 140.145 53.0898C140.051 52.6289 139.898 52.2227 139.688 51.8711C139.484 51.5117 139.215 51.2305 138.879 51.0273C138.543 50.8242 138.137 50.7227 137.66 50.7227C137.184 50.7227 136.777 50.8242 136.441 51.0273C136.113 51.2305 135.844 51.5117 135.633 51.8711C135.43 52.2227 135.281 52.6289 135.188 53.0898C135.094 53.543 135.047 54.0273 135.047 54.543ZM149.133 51.0859V61H145.758V48.3203H148.934L149.133 51.0859ZM152.953 48.2383L152.895 51.3672C152.73 51.3438 152.531 51.3242 152.297 51.3086C152.07 51.2852 151.863 51.2734 151.676 51.2734C151.199 51.2734 150.785 51.3359 150.434 51.4609C150.09 51.5781 149.801 51.7539 149.566 51.9883C149.34 52.2227 149.168 52.5078 149.051 52.8438C148.941 53.1797 148.879 53.5625 148.863 53.9922L148.184 53.7812C148.184 52.9609 148.266 52.207 148.43 51.5195C148.594 50.8242 148.832 50.2188 149.145 49.7031C149.465 49.1875 149.855 48.7891 150.316 48.5078C150.777 48.2266 151.305 48.0859 151.898 48.0859C152.086 48.0859 152.277 48.1016 152.473 48.1328C152.668 48.1562 152.828 48.1914 152.953 48.2383ZM160.992 58.1406V52.4922C160.992 52.0859 160.926 51.7383 160.793 51.4492C160.66 51.1523 160.453 50.9219 160.172 50.7578C159.898 50.5938 159.543 50.5117 159.105 50.5117C158.73 50.5117 158.406 50.5781 158.133 50.7109C157.859 50.8359 157.648 51.0195 157.5 51.2617C157.352 51.4961 157.277 51.7734 157.277 52.0938H153.902C153.902 51.5547 154.027 51.043 154.277 50.5586C154.527 50.0742 154.891 49.6484 155.367 49.2812C155.844 48.9062 156.41 48.6133 157.066 48.4023C157.73 48.1914 158.473 48.0859 159.293 48.0859C160.277 48.0859 161.152 48.25 161.918 48.5781C162.684 48.9062 163.285 49.3984 163.723 50.0547C164.168 50.7109 164.391 51.5312 164.391 52.5156V57.9414C164.391 58.6367 164.434 59.207 164.52 59.6523C164.605 60.0898 164.73 60.4727 164.895 60.8008V61H161.484C161.32 60.6562 161.195 60.2266 161.109 59.7109C161.031 59.1875 160.992 58.6641 160.992 58.1406ZM161.438 53.2773L161.461 55.1875H159.574C159.129 55.1875 158.742 55.2383 158.414 55.3398C158.086 55.4414 157.816 55.5859 157.605 55.7734C157.395 55.9531 157.238 56.1641 157.137 56.4062C157.043 56.6484 156.996 56.9141 156.996 57.2031C156.996 57.4922 157.062 57.7539 157.195 57.9883C157.328 58.2148 157.52 58.3945 157.77 58.5273C158.02 58.6523 158.312 58.7148 158.648 58.7148C159.156 58.7148 159.598 58.6133 159.973 58.4102C160.348 58.207 160.637 57.957 160.84 57.6602C161.051 57.3633 161.16 57.082 161.168 56.8164L162.059 58.2461C161.934 58.5664 161.762 58.8984 161.543 59.2422C161.332 59.5859 161.062 59.9102 160.734 60.2148C160.406 60.5117 160.012 60.7578 159.551 60.9531C159.09 61.1406 158.543 61.2344 157.91 61.2344C157.105 61.2344 156.375 61.0742 155.719 60.7539C155.07 60.4258 154.555 59.9766 154.172 59.4062C153.797 58.8281 153.609 58.1719 153.609 57.4375C153.609 56.7734 153.734 56.1836 153.984 55.668C154.234 55.1523 154.602 54.7188 155.086 54.3672C155.578 54.0078 156.191 53.7383 156.926 53.5586C157.66 53.3711 158.512 53.2773 159.48 53.2773H161.438ZM171.117 58.5391L173.93 48.3203H177.457L173.18 61H171.047L171.117 58.5391ZM169.184 48.3203L172.008 58.5508L172.066 61H169.922L165.645 48.3203H169.184ZM184.641 61.2344C183.656 61.2344 182.773 61.0781 181.992 60.7656C181.211 60.4453 180.547 60.0039 180 59.4414C179.461 58.8789 179.047 58.2266 178.758 57.4844C178.469 56.7344 178.324 55.9375 178.324 55.0938V54.625C178.324 53.6641 178.461 52.7852 178.734 51.9883C179.008 51.1914 179.398 50.5 179.906 49.9141C180.422 49.3281 181.047 48.8789 181.781 48.5664C182.516 48.2461 183.344 48.0859 184.266 48.0859C185.164 48.0859 185.961 48.2344 186.656 48.5312C187.352 48.8281 187.934 49.25 188.402 49.7969C188.879 50.3438 189.238 51 189.48 51.7656C189.723 52.5234 189.844 53.3672 189.844 54.2969V55.7031H179.766V53.4531H186.527V53.1953C186.527 52.7266 186.441 52.3086 186.27 51.9414C186.105 51.5664 185.855 51.2695 185.52 51.0508C185.184 50.832 184.754 50.7227 184.23 50.7227C183.785 50.7227 183.402 50.8203 183.082 51.0156C182.762 51.2109 182.5 51.4844 182.297 51.8359C182.102 52.1875 181.953 52.6016 181.852 53.0781C181.758 53.5469 181.711 54.0625 181.711 54.625V55.0938C181.711 55.6016 181.781 56.0703 181.922 56.5C182.07 56.9297 182.277 57.3008 182.543 57.6133C182.816 57.9258 183.145 58.168 183.527 58.3398C183.918 58.5117 184.359 58.5977 184.852 58.5977C185.461 58.5977 186.027 58.4805 186.551 58.2461C187.082 58.0039 187.539 57.6406 187.922 57.1562L189.562 58.9375C189.297 59.3203 188.934 59.6875 188.473 60.0391C188.02 60.3906 187.473 60.6797 186.832 60.9062C186.191 61.125 185.461 61.2344 184.641 61.2344ZM195.141 51.0859V61H191.766V48.3203H194.941L195.141 51.0859ZM198.961 48.2383L198.902 51.3672C198.738 51.3438 198.539 51.3242 198.305 51.3086C198.078 51.2852 197.871 51.2734 197.684 51.2734C197.207 51.2734 196.793 51.3359 196.441 51.4609C196.098 51.5781 195.809 51.7539 195.574 51.9883C195.348 52.2227 195.176 52.5078 195.059 52.8438C194.949 53.1797 194.887 53.5625 194.871 53.9922L194.191 53.7812C194.191 52.9609 194.273 52.207 194.438 51.5195C194.602 50.8242 194.84 50.2188 195.152 49.7031C195.473 49.1875 195.863 48.7891 196.324 48.5078C196.785 48.2266 197.312 48.0859 197.906 48.0859C198.094 48.0859 198.285 48.1016 198.48 48.1328C198.676 48.1562 198.836 48.1914 198.961 48.2383ZM207.352 48.3203V50.7109H199.969V48.3203H207.352ZM201.797 45.1914H205.172V57.1797C205.172 57.5469 205.219 57.8281 205.312 58.0234C205.414 58.2188 205.562 58.3555 205.758 58.4336C205.953 58.5039 206.199 58.5391 206.496 58.5391C206.707 58.5391 206.895 58.5312 207.059 58.5156C207.23 58.4922 207.375 58.4688 207.492 58.4453L207.504 60.9297C207.215 61.0234 206.902 61.0977 206.566 61.1523C206.23 61.207 205.859 61.2344 205.453 61.2344C204.711 61.2344 204.062 61.1133 203.508 60.8711C202.961 60.6211 202.539 60.2227 202.242 59.6758C201.945 59.1289 201.797 58.4102 201.797 57.5195V45.1914Z" fill="#888888"/>
<path d="M109.219 107.422H100.734V101.07H109.219C110.375 101.07 111.312 100.875 112.031 100.484C112.75 100.094 113.273 99.5547 113.602 98.8672C113.945 98.1641 114.117 97.375 114.117 96.5C114.117 95.5625 113.945 94.6953 113.602 93.8984C113.273 93.1016 112.75 92.4609 112.031 91.9766C111.312 91.4766 110.375 91.2266 109.219 91.2266H103.828V119H95.6016V84.875H109.219C111.953 84.875 114.305 85.375 116.273 86.375C118.258 87.375 119.781 88.75 120.844 90.5C121.906 92.2344 122.438 94.2188 122.438 96.4531C122.438 98.6562 121.906 100.578 120.844 102.219C119.781 103.859 118.258 105.141 116.273 106.062C114.305 106.969 111.953 107.422 109.219 107.422ZM134.836 83V119H126.914V83H134.836ZM152.883 112.625V102.172C152.883 101.453 152.781 100.836 152.578 100.32C152.375 99.8047 152.055 99.4062 151.617 99.125C151.18 98.8281 150.594 98.6797 149.859 98.6797C149.266 98.6797 148.758 98.7812 148.336 98.9844C147.914 99.1875 147.594 99.4922 147.375 99.8984C147.156 100.305 147.047 100.82 147.047 101.445H139.148C139.148 100.273 139.406 99.1875 139.922 98.1875C140.453 97.1719 141.203 96.2891 142.172 95.5391C143.156 94.7891 144.328 94.2109 145.688 93.8047C147.062 93.3828 148.594 93.1719 150.281 93.1719C152.297 93.1719 154.094 93.5078 155.672 94.1797C157.266 94.8516 158.523 95.8594 159.445 97.2031C160.367 98.5312 160.828 100.203 160.828 102.219V112.602C160.828 114.258 160.922 115.516 161.109 116.375C161.297 117.219 161.562 117.961 161.906 118.602V119H153.984C153.609 118.219 153.328 117.266 153.141 116.141C152.969 115 152.883 113.828 152.883 112.625ZM153.844 103.508L153.891 107.727H150.398C149.664 107.727 149.039 107.828 148.523 108.031C148.023 108.234 147.617 108.516 147.305 108.875C147.008 109.219 146.789 109.609 146.648 110.047C146.523 110.484 146.461 110.945 146.461 111.43C146.461 111.898 146.57 112.32 146.789 112.695C147.023 113.055 147.336 113.336 147.727 113.539C148.117 113.742 148.555 113.844 149.039 113.844C149.914 113.844 150.656 113.68 151.266 113.352C151.891 113.008 152.367 112.594 152.695 112.109C153.023 111.625 153.188 111.172 153.188 110.75L154.922 113.984C154.609 114.609 154.25 115.242 153.844 115.883C153.453 116.523 152.961 117.117 152.367 117.664C151.789 118.195 151.078 118.633 150.234 118.977C149.391 119.305 148.367 119.469 147.164 119.469C145.602 119.469 144.164 119.148 142.852 118.508C141.555 117.867 140.516 116.977 139.734 115.836C138.953 114.68 138.562 113.352 138.562 111.852C138.562 110.539 138.797 109.367 139.266 108.336C139.75 107.305 140.477 106.43 141.445 105.711C142.414 104.992 143.648 104.445 145.148 104.07C146.648 103.695 148.414 103.508 150.445 103.508H153.844ZM172.969 99.0547V119H165.07V93.6406H172.477L172.969 99.0547ZM172.031 105.453L170.18 105.5C170.18 103.562 170.414 101.836 170.883 100.32C171.352 98.7891 172.016 97.4922 172.875 96.4297C173.734 95.3672 174.758 94.5625 175.945 94.0156C177.148 93.4531 178.484 93.1719 179.953 93.1719C181.125 93.1719 182.195 93.3438 183.164 93.6875C184.148 94.0312 184.992 94.5859 185.695 95.3516C186.414 96.1172 186.961 97.1328 187.336 98.3984C187.727 99.6484 187.922 101.195 187.922 103.039V119H179.977V103.016C179.977 102 179.836 101.227 179.555 100.695C179.273 100.148 178.867 99.7734 178.336 99.5703C177.805 99.3672 177.156 99.2656 176.391 99.2656C175.578 99.2656 174.891 99.4219 174.328 99.7344C173.766 100.047 173.312 100.484 172.969 101.047C172.641 101.594 172.398 102.242 172.242 102.992C172.102 103.742 172.031 104.562 172.031 105.453ZM205.664 93.6406V99.125H190.383V93.6406H205.664ZM193.594 87.3359H201.492V110.727C201.492 111.398 201.57 111.922 201.727 112.297C201.883 112.656 202.148 112.914 202.523 113.07C202.914 113.211 203.43 113.281 204.07 113.281C204.523 113.281 204.898 113.273 205.195 113.258C205.492 113.227 205.773 113.188 206.039 113.141V118.789C205.367 119.008 204.664 119.172 203.93 119.281C203.195 119.406 202.414 119.469 201.586 119.469C199.898 119.469 198.453 119.203 197.25 118.672C196.062 118.141 195.156 117.305 194.531 116.164C193.906 115.023 193.594 113.539 193.594 111.711V87.3359ZM249.633 84.875V119H241.43L229.359 97.7656V119H221.133V84.875H229.359L241.43 106.109V84.875H249.633ZM266.742 119.469C264.68 119.469 262.836 119.148 261.211 118.508C259.586 117.852 258.211 116.953 257.086 115.812C255.977 114.672 255.125 113.359 254.531 111.875C253.953 110.391 253.664 108.82 253.664 107.164V106.273C253.664 104.414 253.922 102.695 254.438 101.117C254.953 99.5234 255.719 98.1328 256.734 96.9453C257.75 95.7578 259.023 94.8359 260.555 94.1797C262.086 93.5078 263.867 93.1719 265.898 93.1719C267.695 93.1719 269.305 93.4609 270.727 94.0391C272.148 94.6172 273.352 95.4453 274.336 96.5234C275.336 97.6016 276.094 98.9062 276.609 100.438C277.141 101.969 277.406 103.688 277.406 105.594V108.805H256.688V103.859H269.695V103.25C269.711 102.406 269.562 101.688 269.25 101.094C268.953 100.5 268.516 100.047 267.938 99.7344C267.359 99.4219 266.656 99.2656 265.828 99.2656C264.969 99.2656 264.258 99.4531 263.695 99.8281C263.148 100.203 262.719 100.719 262.406 101.375C262.109 102.016 261.898 102.758 261.773 103.602C261.648 104.445 261.586 105.336 261.586 106.273V107.164C261.586 108.102 261.711 108.953 261.961 109.719C262.227 110.484 262.602 111.141 263.086 111.688C263.586 112.219 264.18 112.633 264.867 112.93C265.57 113.227 266.367 113.375 267.258 113.375C268.336 113.375 269.398 113.172 270.445 112.766C271.492 112.359 272.391 111.688 273.141 110.75L276.727 115.016C276.211 115.75 275.477 116.461 274.523 117.148C273.586 117.836 272.461 118.398 271.148 118.836C269.836 119.258 268.367 119.469 266.742 119.469ZM293.977 93.6406V99.125H278.695V93.6406H293.977ZM281.906 87.3359H289.805V110.727C289.805 111.398 289.883 111.922 290.039 112.297C290.195 112.656 290.461 112.914 290.836 113.07C291.227 113.211 291.742 113.281 292.383 113.281C292.836 113.281 293.211 113.273 293.508 113.258C293.805 113.227 294.086 113.188 294.352 113.141V118.789C293.68 119.008 292.977 119.172 292.242 119.281C291.508 119.406 290.727 119.469 289.898 119.469C288.211 119.469 286.766 119.203 285.562 118.672C284.375 118.141 283.469 117.305 282.844 116.164C282.219 115.023 281.906 113.539 281.906 111.711V87.3359Z" fill="black"/>
<path d="M1134 0H1348C1356.28 0 1363 6.71573 1363 15V148C1363 156.284 1356.28 163 1348 163H1134V0Z" fill="#23BA32"/>
<path d="M1281 46.5H1216L1213.5 49V114L1216 116.5H1281L1283.5 114V49L1281 46.5ZM1278.5 111.5H1233.5V101.5H1245C1246.5 104.5 1250 106.5 1253.5 106.5C1259 106.5 1263.5 102 1263.5 96.5C1263.5 91 1259 86.5 1253.5 86.5C1248 86.5 1243.5 91 1243.5 96.5H1228.5V111.5H1218.5V51.5H1228.5V63C1225.5 64.5 1223.5 68 1223.5 71.5C1223.5 77 1228 81.5 1233.5 81.5C1239 81.5 1243.5 77 1243.5 71.5H1253.5C1253.5 77 1258 81.5 1263.5 81.5C1269 81.5 1273.5 77 1273.5 71.5C1273.5 66 1269 61.5 1263.5 61.5C1260 61.5 1256.5 63.5 1255 66.5H1242C1240.5 63.5 1237 61.5 1233.5 61.5V51.5H1278.5V111.5ZM1248.5 96.5C1248.5 93.5 1250.5 91.5 1253.5 91.5C1256.5 91.5 1258.5 93.5 1258.5 96.5C1258.5 99.5 1256.5 101.5 1253.5 101.5C1250.5 101.5 1248.5 99.5 1248.5 96.5ZM1233.5 66.5C1236.5 66.5 1238.5 68.5 1238.5 71.5C1238.5 74.5 1236.5 76.5 1233.5 76.5C1230.5 76.5 1228.5 74.5 1228.5 71.5C1228.5 68.5 1230.5 66.5 1233.5 66.5ZM1263.5 66.5C1266.5 66.5 1268.5 68.5 1268.5 71.5C1268.5 74.5 1266.5 76.5 1263.5 76.5C1260.5 76.5 1258.5 74.5 1258.5 71.5C1258.5 68.5 1260.5 66.5 1263.5 66.5Z" fill="white"/>
</svg>
