<svg width="1363" height="163" viewBox="0 0 1363 163" fill="none" xmlns="http://www.w3.org/2000/svg">
<path d="M0 15C0 6.71573 6.71573 0 15 0H37V163H15C6.71573 163 0 156.284 0 148V15Z" fill="#23BA32"/>
<rect width="1097" height="163" transform="translate(37)" fill="#F0F0F0"/>
<path d="M101.906 53.9219L94.3945 51.2383V48.0859L104.602 52.375V54.6367L101.906 53.9219ZM94.3945 56.1719L101.918 53.4297L104.602 52.7852V55.0352L94.3945 59.3242V56.1719ZM116.414 43.9375V61H112.898V43.9375H116.414ZM123.211 51.2266V53.9688H115.453V51.2266H123.211ZM124.031 43.9375V46.6914H115.453V43.9375H124.031ZM129.422 43V61H126.035V43H129.422ZM131.672 54.7891V54.543C131.672 53.6133 131.805 52.7578 132.07 51.9766C132.336 51.1875 132.723 50.5039 133.23 49.9258C133.738 49.3477 134.363 48.8984 135.105 48.5781C135.848 48.25 136.699 48.0859 137.66 48.0859C138.621 48.0859 139.477 48.25 140.227 48.5781C140.977 48.8984 141.605 49.3477 142.113 49.9258C142.629 50.5039 143.02 51.1875 143.285 51.9766C143.551 52.7578 143.684 53.6133 143.684 54.543V54.7891C143.684 55.7109 143.551 56.5664 143.285 57.3555C143.02 58.1367 142.629 58.8203 142.113 59.4062C141.605 59.9844 140.98 60.4336 140.238 60.7539C139.496 61.0742 138.645 61.2344 137.684 61.2344C136.723 61.2344 135.867 61.0742 135.117 60.7539C134.375 60.4336 133.746 59.9844 133.23 59.4062C132.723 58.8203 132.336 58.1367 132.07 57.3555C131.805 56.5664 131.672 55.7109 131.672 54.7891ZM135.047 54.543V54.7891C135.047 55.3203 135.094 55.8164 135.188 56.2773C135.281 56.7383 135.43 57.1445 135.633 57.4961C135.844 57.8398 136.117 58.1094 136.453 58.3047C136.789 58.5 137.199 58.5977 137.684 58.5977C138.152 58.5977 138.555 58.5 138.891 58.3047C139.227 58.1094 139.496 57.8398 139.699 57.4961C139.902 57.1445 140.051 56.7383 140.145 56.2773C140.246 55.8164 140.297 55.3203 140.297 54.7891V54.543C140.297 54.0273 140.246 53.543 140.145 53.0898C140.051 52.6289 139.898 52.2227 139.688 51.8711C139.484 51.5117 139.215 51.2305 138.879 51.0273C138.543 50.8242 138.137 50.7227 137.66 50.7227C137.184 50.7227 136.777 50.8242 136.441 51.0273C136.113 51.2305 135.844 51.5117 135.633 51.8711C135.43 52.2227 135.281 52.6289 135.188 53.0898C135.094 53.543 135.047 54.0273 135.047 54.543ZM149.133 51.0859V61H145.758V48.3203H148.934L149.133 51.0859ZM152.953 48.2383L152.895 51.3672C152.73 51.3438 152.531 51.3242 152.297 51.3086C152.07 51.2852 151.863 51.2734 151.676 51.2734C151.199 51.2734 150.785 51.3359 150.434 51.4609C150.09 51.5781 149.801 51.7539 149.566 51.9883C149.34 52.2227 149.168 52.5078 149.051 52.8438C148.941 53.1797 148.879 53.5625 148.863 53.9922L148.184 53.7812C148.184 52.9609 148.266 52.207 148.43 51.5195C148.594 50.8242 148.832 50.2188 149.145 49.7031C149.465 49.1875 149.855 48.7891 150.316 48.5078C150.777 48.2266 151.305 48.0859 151.898 48.0859C152.086 48.0859 152.277 48.1016 152.473 48.1328C152.668 48.1562 152.828 48.1914 152.953 48.2383ZM160.992 58.1406V52.4922C160.992 52.0859 160.926 51.7383 160.793 51.4492C160.66 51.1523 160.453 50.9219 160.172 50.7578C159.898 50.5938 159.543 50.5117 159.105 50.5117C158.73 50.5117 158.406 50.5781 158.133 50.7109C157.859 50.8359 157.648 51.0195 157.5 51.2617C157.352 51.4961 157.277 51.7734 157.277 52.0938H153.902C153.902 51.5547 154.027 51.043 154.277 50.5586C154.527 50.0742 154.891 49.6484 155.367 49.2812C155.844 48.9062 156.41 48.6133 157.066 48.4023C157.73 48.1914 158.473 48.0859 159.293 48.0859C160.277 48.0859 161.152 48.25 161.918 48.5781C162.684 48.9062 163.285 49.3984 163.723 50.0547C164.168 50.7109 164.391 51.5312 164.391 52.5156V57.9414C164.391 58.6367 164.434 59.207 164.52 59.6523C164.605 60.0898 164.73 60.4727 164.895 60.8008V61H161.484C161.32 60.6562 161.195 60.2266 161.109 59.7109C161.031 59.1875 160.992 58.6641 160.992 58.1406ZM161.438 53.2773L161.461 55.1875H159.574C159.129 55.1875 158.742 55.2383 158.414 55.3398C158.086 55.4414 157.816 55.5859 157.605 55.7734C157.395 55.9531 157.238 56.1641 157.137 56.4062C157.043 56.6484 156.996 56.9141 156.996 57.2031C156.996 57.4922 157.062 57.7539 157.195 57.9883C157.328 58.2148 157.52 58.3945 157.77 58.5273C158.02 58.6523 158.312 58.7148 158.648 58.7148C159.156 58.7148 159.598 58.6133 159.973 58.4102C160.348 58.207 160.637 57.957 160.84 57.6602C161.051 57.3633 161.16 57.082 161.168 56.8164L162.059 58.2461C161.934 58.5664 161.762 58.8984 161.543 59.2422C161.332 59.5859 161.062 59.9102 160.734 60.2148C160.406 60.5117 160.012 60.7578 159.551 60.9531C159.09 61.1406 158.543 61.2344 157.91 61.2344C157.105 61.2344 156.375 61.0742 155.719 60.7539C155.07 60.4258 154.555 59.9766 154.172 59.4062C153.797 58.8281 153.609 58.1719 153.609 57.4375C153.609 56.7734 153.734 56.1836 153.984 55.668C154.234 55.1523 154.602 54.7188 155.086 54.3672C155.578 54.0078 156.191 53.7383 156.926 53.5586C157.66 53.3711 158.512 53.2773 159.48 53.2773H161.438ZM171.117 58.5391L173.93 48.3203H177.457L173.18 61H171.047L171.117 58.5391ZM169.184 48.3203L172.008 58.5508L172.066 61H169.922L165.645 48.3203H169.184ZM184.641 61.2344C183.656 61.2344 182.773 61.0781 181.992 60.7656C181.211 60.4453 180.547 60.0039 180 59.4414C179.461 58.8789 179.047 58.2266 178.758 57.4844C178.469 56.7344 178.324 55.9375 178.324 55.0938V54.625C178.324 53.6641 178.461 52.7852 178.734 51.9883C179.008 51.1914 179.398 50.5 179.906 49.9141C180.422 49.3281 181.047 48.8789 181.781 48.5664C182.516 48.2461 183.344 48.0859 184.266 48.0859C185.164 48.0859 185.961 48.2344 186.656 48.5312C187.352 48.8281 187.934 49.25 188.402 49.7969C188.879 50.3438 189.238 51 189.48 51.7656C189.723 52.5234 189.844 53.3672 189.844 54.2969V55.7031H179.766V53.4531H186.527V53.1953C186.527 52.7266 186.441 52.3086 186.27 51.9414C186.105 51.5664 185.855 51.2695 185.52 51.0508C185.184 50.832 184.754 50.7227 184.23 50.7227C183.785 50.7227 183.402 50.8203 183.082 51.0156C182.762 51.2109 182.5 51.4844 182.297 51.8359C182.102 52.1875 181.953 52.6016 181.852 53.0781C181.758 53.5469 181.711 54.0625 181.711 54.625V55.0938C181.711 55.6016 181.781 56.0703 181.922 56.5C182.07 56.9297 182.277 57.3008 182.543 57.6133C182.816 57.9258 183.145 58.168 183.527 58.3398C183.918 58.5117 184.359 58.5977 184.852 58.5977C185.461 58.5977 186.027 58.4805 186.551 58.2461C187.082 58.0039 187.539 57.6406 187.922 57.1562L189.562 58.9375C189.297 59.3203 188.934 59.6875 188.473 60.0391C188.02 60.3906 187.473 60.6797 186.832 60.9062C186.191 61.125 185.461 61.2344 184.641 61.2344ZM195.141 51.0859V61H191.766V48.3203H194.941L195.141 51.0859ZM198.961 48.2383L198.902 51.3672C198.738 51.3438 198.539 51.3242 198.305 51.3086C198.078 51.2852 197.871 51.2734 197.684 51.2734C197.207 51.2734 196.793 51.3359 196.441 51.4609C196.098 51.5781 195.809 51.7539 195.574 51.9883C195.348 52.2227 195.176 52.5078 195.059 52.8438C194.949 53.1797 194.887 53.5625 194.871 53.9922L194.191 53.7812C194.191 52.9609 194.273 52.207 194.438 51.5195C194.602 50.8242 194.84 50.2188 195.152 49.7031C195.473 49.1875 195.863 48.7891 196.324 48.5078C196.785 48.2266 197.312 48.0859 197.906 48.0859C198.094 48.0859 198.285 48.1016 198.48 48.1328C198.676 48.1562 198.836 48.1914 198.961 48.2383ZM207.352 48.3203V50.7109H199.969V48.3203H207.352ZM201.797 45.1914H205.172V57.1797C205.172 57.5469 205.219 57.8281 205.312 58.0234C205.414 58.2188 205.562 58.3555 205.758 58.4336C205.953 58.5039 206.199 58.5391 206.496 58.5391C206.707 58.5391 206.895 58.5312 207.059 58.5156C207.23 58.4922 207.375 58.4688 207.492 58.4453L207.504 60.9297C207.215 61.0234 206.902 61.0977 206.566 61.1523C206.23 61.207 205.859 61.2344 205.453 61.2344C204.711 61.2344 204.062 61.1133 203.508 60.8711C202.961 60.6211 202.539 60.2227 202.242 59.6758C201.945 59.1289 201.797 58.4102 201.797 57.5195V45.1914Z" fill="#888888"/>
<path d="M109.219 107.422H100.734V101.07H109.219C110.375 101.07 111.312 100.875 112.031 100.484C112.75 100.094 113.273 99.5547 113.602 98.8672C113.945 98.1641 114.117 97.375 114.117 96.5C114.117 95.5625 113.945 94.6953 113.602 93.8984C113.273 93.1016 112.75 92.4609 112.031 91.9766C111.312 91.4766 110.375 91.2266 109.219 91.2266H103.828V119H95.6016V84.875H109.219C111.953 84.875 114.305 85.375 116.273 86.375C118.258 87.375 119.781 88.75 120.844 90.5C121.906 92.2344 122.438 94.2188 122.438 96.4531C122.438 98.6562 121.906 100.578 120.844 102.219C119.781 103.859 118.258 105.141 116.273 106.062C114.305 106.969 111.953 107.422 109.219 107.422ZM134.836 83V119H126.914V83H134.836ZM152.883 112.625V102.172C152.883 101.453 152.781 100.836 152.578 100.32C152.375 99.8047 152.055 99.4062 151.617 99.125C151.18 98.8281 150.594 98.6797 149.859 98.6797C149.266 98.6797 148.758 98.7812 148.336 98.9844C147.914 99.1875 147.594 99.4922 147.375 99.8984C147.156 100.305 147.047 100.82 147.047 101.445H139.148C139.148 100.273 139.406 99.1875 139.922 98.1875C140.453 97.1719 141.203 96.2891 142.172 95.5391C143.156 94.7891 144.328 94.2109 145.688 93.8047C147.062 93.3828 148.594 93.1719 150.281 93.1719C152.297 93.1719 154.094 93.5078 155.672 94.1797C157.266 94.8516 158.523 95.8594 159.445 97.2031C160.367 98.5312 160.828 100.203 160.828 102.219V112.602C160.828 114.258 160.922 115.516 161.109 116.375C161.297 117.219 161.562 117.961 161.906 118.602V119H153.984C153.609 118.219 153.328 117.266 153.141 116.141C152.969 115 152.883 113.828 152.883 112.625ZM153.844 103.508L153.891 107.727H150.398C149.664 107.727 149.039 107.828 148.523 108.031C148.023 108.234 147.617 108.516 147.305 108.875C147.008 109.219 146.789 109.609 146.648 110.047C146.523 110.484 146.461 110.945 146.461 111.43C146.461 111.898 146.57 112.32 146.789 112.695C147.023 113.055 147.336 113.336 147.727 113.539C148.117 113.742 148.555 113.844 149.039 113.844C149.914 113.844 150.656 113.68 151.266 113.352C151.891 113.008 152.367 112.594 152.695 112.109C153.023 111.625 153.188 111.172 153.188 110.75L154.922 113.984C154.609 114.609 154.25 115.242 153.844 115.883C153.453 116.523 152.961 117.117 152.367 117.664C151.789 118.195 151.078 118.633 150.234 118.977C149.391 119.305 148.367 119.469 147.164 119.469C145.602 119.469 144.164 119.148 142.852 118.508C141.555 117.867 140.516 116.977 139.734 115.836C138.953 114.68 138.562 113.352 138.562 111.852C138.562 110.539 138.797 109.367 139.266 108.336C139.75 107.305 140.477 106.43 141.445 105.711C142.414 104.992 143.648 104.445 145.148 104.07C146.648 103.695 148.414 103.508 150.445 103.508H153.844ZM172.969 99.0547V119H165.07V93.6406H172.477L172.969 99.0547ZM172.031 105.453L170.18 105.5C170.18 103.562 170.414 101.836 170.883 100.32C171.352 98.7891 172.016 97.4922 172.875 96.4297C173.734 95.3672 174.758 94.5625 175.945 94.0156C177.148 93.4531 178.484 93.1719 179.953 93.1719C181.125 93.1719 182.195 93.3438 183.164 93.6875C184.148 94.0312 184.992 94.5859 185.695 95.3516C186.414 96.1172 186.961 97.1328 187.336 98.3984C187.727 99.6484 187.922 101.195 187.922 103.039V119H179.977V103.016C179.977 102 179.836 101.227 179.555 100.695C179.273 100.148 178.867 99.7734 178.336 99.5703C177.805 99.3672 177.156 99.2656 176.391 99.2656C175.578 99.2656 174.891 99.4219 174.328 99.7344C173.766 100.047 173.312 100.484 172.969 101.047C172.641 101.594 172.398 102.242 172.242 102.992C172.102 103.742 172.031 104.562 172.031 105.453ZM205.664 93.6406V99.125H190.383V93.6406H205.664ZM193.594 87.3359H201.492V110.727C201.492 111.398 201.57 111.922 201.727 112.297C201.883 112.656 202.148 112.914 202.523 113.07C202.914 113.211 203.43 113.281 204.07 113.281C204.523 113.281 204.898 113.273 205.195 113.258C205.492 113.227 205.773 113.188 206.039 113.141V118.789C205.367 119.008 204.664 119.172 203.93 119.281C203.195 119.406 202.414 119.469 201.586 119.469C199.898 119.469 198.453 119.203 197.25 118.672C196.062 118.141 195.156 117.305 194.531 116.164C193.906 115.023 193.594 113.539 193.594 111.711V87.3359ZM237.68 84.875V119H229.477L217.406 97.7656V119H209.18V84.875H217.406L229.477 106.109V84.875H237.68ZM254.789 119.469C252.727 119.469 250.883 119.148 249.258 118.508C247.633 117.852 246.258 116.953 245.133 115.812C244.023 114.672 243.172 113.359 242.578 111.875C242 110.391 241.711 108.82 241.711 107.164V106.273C241.711 104.414 241.969 102.695 242.484 101.117C243 99.5234 243.766 98.1328 244.781 96.9453C245.797 95.7578 247.07 94.8359 248.602 94.1797C250.133 93.5078 251.914 93.1719 253.945 93.1719C255.742 93.1719 257.352 93.4609 258.773 94.0391C260.195 94.6172 261.398 95.4453 262.383 96.5234C263.383 97.6016 264.141 98.9062 264.656 100.438C265.188 101.969 265.453 103.688 265.453 105.594V108.805H244.734V103.859H257.742V103.25C257.758 102.406 257.609 101.688 257.297 101.094C257 100.5 256.562 100.047 255.984 99.7344C255.406 99.4219 254.703 99.2656 253.875 99.2656C253.016 99.2656 252.305 99.4531 251.742 99.8281C251.195 100.203 250.766 100.719 250.453 101.375C250.156 102.016 249.945 102.758 249.82 103.602C249.695 104.445 249.633 105.336 249.633 106.273V107.164C249.633 108.102 249.758 108.953 250.008 109.719C250.273 110.484 250.648 111.141 251.133 111.688C251.633 112.219 252.227 112.633 252.914 112.93C253.617 113.227 254.414 113.375 255.305 113.375C256.383 113.375 257.445 113.172 258.492 112.766C259.539 112.359 260.438 111.688 261.188 110.75L264.773 115.016C264.258 115.75 263.523 116.461 262.57 117.148C261.633 117.836 260.508 118.398 259.195 118.836C257.883 119.258 256.414 119.469 254.789 119.469ZM282.023 93.6406V99.125H266.742V93.6406H282.023ZM269.953 87.3359H277.852V110.727C277.852 111.398 277.93 111.922 278.086 112.297C278.242 112.656 278.508 112.914 278.883 113.07C279.273 113.211 279.789 113.281 280.43 113.281C280.883 113.281 281.258 113.273 281.555 113.258C281.852 113.227 282.133 113.188 282.398 113.141V118.789C281.727 119.008 281.023 119.172 280.289 119.281C279.555 119.406 278.773 119.469 277.945 119.469C276.258 119.469 274.812 119.203 273.609 118.672C272.422 118.141 271.516 117.305 270.891 116.164C270.266 115.023 269.953 113.539 269.953 111.711V87.3359ZM319.336 99.6406V106.414H295.945V99.6406H319.336ZM311.367 90.7344V115.578H303.984V90.7344H311.367ZM363.961 101.258V102.641C363.961 105.25 363.594 107.594 362.859 109.672C362.141 111.734 361.117 113.5 359.789 114.969C358.461 116.422 356.891 117.539 355.078 118.32C353.266 119.086 351.266 119.469 349.078 119.469C346.875 119.469 344.859 119.086 343.031 118.32C341.219 117.539 339.641 116.422 338.297 114.969C336.969 113.5 335.938 111.734 335.203 109.672C334.484 107.594 334.125 105.25 334.125 102.641V101.258C334.125 98.6484 334.484 96.3047 335.203 94.2266C335.938 92.1484 336.961 90.3828 338.273 88.9297C339.602 87.4609 341.172 86.3438 342.984 85.5781C344.812 84.7969 346.828 84.4062 349.031 84.4062C351.219 84.4062 353.219 84.7969 355.031 85.5781C356.859 86.3438 358.438 87.4609 359.766 88.9297C361.094 90.3828 362.125 92.1484 362.859 94.2266C363.594 96.3047 363.961 98.6484 363.961 101.258ZM355.617 102.641V101.211C355.617 99.5234 355.469 98.0391 355.172 96.7578C354.891 95.4609 354.469 94.375 353.906 93.5C353.344 92.625 352.648 91.9688 351.82 91.5312C351.008 91.0781 350.078 90.8516 349.031 90.8516C347.938 90.8516 346.984 91.0781 346.172 91.5312C345.359 91.9688 344.68 92.625 344.133 93.5C343.586 94.375 343.172 95.4609 342.891 96.7578C342.625 98.0391 342.492 99.5234 342.492 101.211V102.641C342.492 104.312 342.625 105.797 342.891 107.094C343.172 108.375 343.586 109.461 344.133 110.352C344.695 111.242 345.383 111.914 346.195 112.367C347.023 112.82 347.984 113.047 349.078 113.047C350.125 113.047 351.055 112.82 351.867 112.367C352.68 111.914 353.359 111.242 353.906 110.352C354.469 109.461 354.891 108.375 355.172 107.094C355.469 105.797 355.617 104.312 355.617 102.641ZM375.82 98.5156V128.75H367.922V93.6406H375.281L375.82 98.5156ZM391.383 106.016V106.508C391.383 108.352 391.172 110.062 390.75 111.641C390.328 113.219 389.703 114.594 388.875 115.766C388.047 116.938 387.016 117.852 385.781 118.508C384.562 119.148 383.148 119.469 381.539 119.469C380.023 119.469 378.719 119.133 377.625 118.461C376.531 117.789 375.617 116.859 374.883 115.672C374.148 114.484 373.555 113.125 373.102 111.594C372.648 110.062 372.289 108.445 372.023 106.742V106.109C372.289 104.281 372.648 102.586 373.102 101.023C373.555 99.4453 374.148 98.0703 374.883 96.8984C375.617 95.7266 376.523 94.8125 377.602 94.1562C378.695 93.5 380 93.1719 381.516 93.1719C383.125 93.1719 384.539 93.4766 385.758 94.0859C386.992 94.6953 388.023 95.5703 388.852 96.7109C389.695 97.8359 390.328 99.1875 390.75 100.766C391.172 102.344 391.383 104.094 391.383 106.016ZM383.484 106.508V106.016C383.484 105.031 383.414 104.133 383.273 103.32C383.133 102.492 382.906 101.773 382.594 101.164C382.297 100.555 381.898 100.086 381.398 99.7578C380.898 99.4297 380.281 99.2656 379.547 99.2656C378.703 99.2656 377.992 99.3984 377.414 99.6641C376.852 99.9141 376.398 100.305 376.055 100.836C375.727 101.352 375.492 102 375.352 102.781C375.227 103.547 375.172 104.445 375.188 105.477V107.398C375.156 108.586 375.273 109.633 375.539 110.539C375.805 111.43 376.266 112.125 376.922 112.625C377.578 113.125 378.469 113.375 379.594 113.375C380.344 113.375 380.969 113.203 381.469 112.859C381.969 112.5 382.367 112.008 382.664 111.383C382.961 110.742 383.172 110.008 383.297 109.18C383.422 108.352 383.484 107.461 383.484 106.508ZM407.18 119.469C405.117 119.469 403.273 119.148 401.648 118.508C400.023 117.852 398.648 116.953 397.523 115.812C396.414 114.672 395.562 113.359 394.969 111.875C394.391 110.391 394.102 108.82 394.102 107.164V106.273C394.102 104.414 394.359 102.695 394.875 101.117C395.391 99.5234 396.156 98.1328 397.172 96.9453C398.188 95.7578 399.461 94.8359 400.992 94.1797C402.523 93.5078 404.305 93.1719 406.336 93.1719C408.133 93.1719 409.742 93.4609 411.164 94.0391C412.586 94.6172 413.789 95.4453 414.773 96.5234C415.773 97.6016 416.531 98.9062 417.047 100.438C417.578 101.969 417.844 103.688 417.844 105.594V108.805H397.125V103.859H410.133V103.25C410.148 102.406 410 101.688 409.688 101.094C409.391 100.5 408.953 100.047 408.375 99.7344C407.797 99.4219 407.094 99.2656 406.266 99.2656C405.406 99.2656 404.695 99.4531 404.133 99.8281C403.586 100.203 403.156 100.719 402.844 101.375C402.547 102.016 402.336 102.758 402.211 103.602C402.086 104.445 402.023 105.336 402.023 106.273V107.164C402.023 108.102 402.148 108.953 402.398 109.719C402.664 110.484 403.039 111.141 403.523 111.688C404.023 112.219 404.617 112.633 405.305 112.93C406.008 113.227 406.805 113.375 407.695 113.375C408.773 113.375 409.836 113.172 410.883 112.766C411.93 112.359 412.828 111.688 413.578 110.75L417.164 115.016C416.648 115.75 415.914 116.461 414.961 117.148C414.023 117.836 412.898 118.398 411.586 118.836C410.273 119.258 408.805 119.469 407.18 119.469ZM428.812 99.0547V119H420.914V93.6406H428.32L428.812 99.0547ZM427.875 105.453L426.023 105.5C426.023 103.562 426.258 101.836 426.727 100.32C427.195 98.7891 427.859 97.4922 428.719 96.4297C429.578 95.3672 430.602 94.5625 431.789 94.0156C432.992 93.4531 434.328 93.1719 435.797 93.1719C436.969 93.1719 438.039 93.3438 439.008 93.6875C439.992 94.0312 440.836 94.5859 441.539 95.3516C442.258 96.1172 442.805 97.1328 443.18 98.3984C443.57 99.6484 443.766 101.195 443.766 103.039V119H435.82V103.016C435.82 102 435.68 101.227 435.398 100.695C435.117 100.148 434.711 99.7734 434.18 99.5703C433.648 99.3672 433 99.2656 432.234 99.2656C431.422 99.2656 430.734 99.4219 430.172 99.7344C429.609 100.047 429.156 100.484 428.812 101.047C428.484 101.594 428.242 102.242 428.086 102.992C427.945 103.742 427.875 104.562 427.875 105.453ZM462.984 92.0469L454.664 119H445.828L458.367 84.875H463.969L462.984 92.0469ZM469.875 119L461.531 92.0469L460.453 84.875H466.125L478.734 119H469.875ZM469.547 106.273V112.625H452.039V106.273H469.547ZM489.984 84.875V119H481.781V84.875H489.984ZM527.133 107.445H535.336C535.227 109.82 534.586 111.914 533.414 113.727C532.242 115.539 530.617 116.953 528.539 117.969C526.477 118.969 524.039 119.469 521.227 119.469C518.945 119.469 516.906 119.086 515.109 118.32C513.328 117.555 511.812 116.453 510.562 115.016C509.328 113.578 508.383 111.836 507.727 109.789C507.086 107.742 506.766 105.438 506.766 102.875V101.023C506.766 98.4609 507.102 96.1562 507.773 94.1094C508.461 92.0469 509.43 90.2969 510.68 88.8594C511.945 87.4062 513.461 86.2969 515.227 85.5312C516.992 84.7656 518.953 84.3828 521.109 84.3828C524.078 84.3828 526.586 84.9141 528.633 85.9766C530.68 87.0391 532.266 88.5 533.391 90.3594C534.516 92.2031 535.18 94.3047 535.383 96.6641H527.18C527.148 95.3828 526.93 94.3125 526.523 93.4531C526.117 92.5781 525.477 91.9219 524.602 91.4844C523.727 91.0469 522.562 90.8281 521.109 90.8281C520.094 90.8281 519.211 91.0156 518.461 91.3906C517.711 91.7656 517.086 92.3594 516.586 93.1719C516.086 93.9844 515.711 95.0391 515.461 96.3359C515.227 97.6172 515.109 99.1641 515.109 100.977V102.875C515.109 104.688 515.219 106.234 515.438 107.516C515.656 108.797 516.008 109.844 516.492 110.656C516.977 111.469 517.602 112.07 518.367 112.461C519.148 112.836 520.102 113.023 521.227 113.023C522.477 113.023 523.531 112.828 524.391 112.438C525.25 112.031 525.914 111.422 526.383 110.609C526.852 109.781 527.102 108.727 527.133 107.445ZM537.867 106.578V106.086C537.867 104.227 538.133 102.516 538.664 100.953C539.195 99.375 539.977 98.0078 541.008 96.8516C542.039 95.6953 543.312 94.7969 544.828 94.1562C546.344 93.5 548.094 93.1719 550.078 93.1719C552.078 93.1719 553.836 93.5 555.352 94.1562C556.883 94.7969 558.164 95.6953 559.195 96.8516C560.227 98.0078 561.008 99.375 561.539 100.953C562.07 102.516 562.336 104.227 562.336 106.086V106.578C562.336 108.422 562.07 110.133 561.539 111.711C561.008 113.273 560.227 114.641 559.195 115.812C558.164 116.969 556.891 117.867 555.375 118.508C553.859 119.148 552.109 119.469 550.125 119.469C548.141 119.469 546.383 119.148 544.852 118.508C543.32 117.867 542.039 116.969 541.008 115.812C539.977 114.641 539.195 113.273 538.664 111.711C538.133 110.133 537.867 108.422 537.867 106.578ZM545.766 106.086V106.578C545.766 107.531 545.836 108.422 545.977 109.25C546.117 110.078 546.352 110.805 546.68 111.43C547.008 112.039 547.453 112.516 548.016 112.859C548.578 113.203 549.281 113.375 550.125 113.375C550.953 113.375 551.641 113.203 552.188 112.859C552.75 112.516 553.195 112.039 553.523 111.43C553.852 110.805 554.086 110.078 554.227 109.25C554.367 108.422 554.438 107.531 554.438 106.578V106.086C554.438 105.164 554.367 104.297 554.227 103.484C554.086 102.656 553.852 101.93 553.523 101.305C553.195 100.664 552.75 100.164 552.188 99.8047C551.625 99.4453 550.922 99.2656 550.078 99.2656C549.25 99.2656 548.555 99.4453 547.992 99.8047C547.445 100.164 547.008 100.664 546.68 101.305C546.352 101.93 546.117 102.656 545.977 103.484C545.836 104.297 545.766 105.164 545.766 106.086ZM573.82 99.0078V119H565.922V93.6406H573.328L573.82 99.0078ZM572.859 105.453L571.055 105.5C571.055 103.719 571.266 102.078 571.688 100.578C572.109 99.0781 572.734 97.7734 573.562 96.6641C574.391 95.5547 575.406 94.6953 576.609 94.0859C577.828 93.4766 579.234 93.1719 580.828 93.1719C581.938 93.1719 582.945 93.3438 583.852 93.6875C584.758 94.0156 585.539 94.5391 586.195 95.2578C586.852 95.9609 587.352 96.8828 587.695 98.0234C588.055 99.1484 588.234 100.5 588.234 102.078V119H580.336V103.086C580.336 102.008 580.211 101.195 579.961 100.648C579.727 100.102 579.383 99.7344 578.93 99.5469C578.477 99.3594 577.922 99.2656 577.266 99.2656C576.578 99.2656 575.961 99.4219 575.414 99.7344C574.867 100.047 574.398 100.484 574.008 101.047C573.633 101.594 573.344 102.242 573.141 102.992C572.953 103.742 572.859 104.562 572.859 105.453ZM587.344 105.453L585.141 105.5C585.141 103.719 585.336 102.078 585.727 100.578C586.133 99.0781 586.734 97.7734 587.531 96.6641C588.344 95.5547 589.352 94.6953 590.555 94.0859C591.758 93.4766 593.156 93.1719 594.75 93.1719C595.906 93.1719 596.969 93.3438 597.938 93.6875C598.906 94.0312 599.742 94.5859 600.445 95.3516C601.148 96.1172 601.695 97.1328 602.086 98.3984C602.477 99.6484 602.672 101.195 602.672 103.039V119H594.75V103.039C594.75 101.992 594.625 101.203 594.375 100.672C594.141 100.125 593.797 99.7578 593.344 99.5703C592.891 99.3672 592.352 99.2656 591.727 99.2656C590.977 99.2656 590.328 99.4219 589.781 99.7344C589.234 100.047 588.773 100.484 588.398 101.047C588.039 101.594 587.773 102.242 587.602 102.992C587.43 103.742 587.344 104.562 587.344 105.453ZM607.266 83H615.164V112.766L614.344 119H607.266V83ZM630.727 106.039V106.531C630.727 108.453 630.531 110.203 630.141 111.781C629.75 113.359 629.148 114.727 628.336 115.883C627.523 117.023 626.5 117.906 625.266 118.531C624.031 119.156 622.57 119.469 620.883 119.469C619.352 119.469 618.039 119.141 616.945 118.484C615.852 117.812 614.938 116.891 614.203 115.719C613.469 114.531 612.875 113.164 612.422 111.617C611.969 110.055 611.609 108.383 611.344 106.602V106.016C611.609 104.25 611.969 102.594 612.422 101.047C612.875 99.4844 613.469 98.1172 614.203 96.9453C614.938 95.7578 615.844 94.8359 616.922 94.1797C618.016 93.5078 619.32 93.1719 620.836 93.1719C622.539 93.1719 624.008 93.4922 625.242 94.1328C626.492 94.7734 627.523 95.6719 628.336 96.8281C629.148 97.9844 629.75 99.3438 630.141 100.906C630.531 102.469 630.727 104.18 630.727 106.039ZM622.828 106.531V106.039C622.828 105.117 622.773 104.25 622.664 103.438C622.555 102.625 622.359 101.906 622.078 101.281C621.797 100.656 621.398 100.164 620.883 99.8047C620.367 99.4453 619.695 99.2656 618.867 99.2656C618.023 99.2656 617.312 99.4062 616.734 99.6875C616.172 99.9688 615.719 100.375 615.375 100.906C615.047 101.422 614.812 102.062 614.672 102.828C614.531 103.578 614.469 104.43 614.484 105.383V107.234C614.453 108.531 614.57 109.641 614.836 110.562C615.102 111.484 615.562 112.188 616.219 112.672C616.875 113.156 617.773 113.398 618.914 113.398C619.758 113.398 620.438 113.234 620.953 112.906C621.484 112.578 621.883 112.109 622.148 111.5C622.414 110.891 622.594 110.164 622.688 109.32C622.781 108.477 622.828 107.547 622.828 106.531ZM633.258 106.578V106.086C633.258 104.227 633.523 102.516 634.055 100.953C634.586 99.375 635.367 98.0078 636.398 96.8516C637.43 95.6953 638.703 94.7969 640.219 94.1562C641.734 93.5 643.484 93.1719 645.469 93.1719C647.469 93.1719 649.227 93.5 650.742 94.1562C652.273 94.7969 653.555 95.6953 654.586 96.8516C655.617 98.0078 656.398 99.375 656.93 100.953C657.461 102.516 657.727 104.227 657.727 106.086V106.578C657.727 108.422 657.461 110.133 656.93 111.711C656.398 113.273 655.617 114.641 654.586 115.812C653.555 116.969 652.281 117.867 650.766 118.508C649.25 119.148 647.5 119.469 645.516 119.469C643.531 119.469 641.773 119.148 640.242 118.508C638.711 117.867 637.43 116.969 636.398 115.812C635.367 114.641 634.586 113.273 634.055 111.711C633.523 110.133 633.258 108.422 633.258 106.578ZM641.156 106.086V106.578C641.156 107.531 641.227 108.422 641.367 109.25C641.508 110.078 641.742 110.805 642.07 111.43C642.398 112.039 642.844 112.516 643.406 112.859C643.969 113.203 644.672 113.375 645.516 113.375C646.344 113.375 647.031 113.203 647.578 112.859C648.141 112.516 648.586 112.039 648.914 111.43C649.242 110.805 649.477 110.078 649.617 109.25C649.758 108.422 649.828 107.531 649.828 106.578V106.086C649.828 105.164 649.758 104.297 649.617 103.484C649.477 102.656 649.242 101.93 648.914 101.305C648.586 100.664 648.141 100.164 647.578 99.8047C647.016 99.4453 646.312 99.2656 645.469 99.2656C644.641 99.2656 643.945 99.4453 643.383 99.8047C642.836 100.164 642.398 100.664 642.07 101.305C641.742 101.93 641.508 102.656 641.367 103.484C641.227 104.297 641.156 105.164 641.156 106.086Z" fill="black"/>
<path d="M1134 0H1348C1356.28 0 1363 6.71573 1363 15V148C1363 156.284 1356.28 163 1348 163H1134V0Z" fill="#23BA32"/>
<path d="M1319.37 65.3684C1319.83 64.0215 1319.98 62.5947 1319.83 61.1833C1319.68 59.7719 1319.23 58.4083 1318.5 57.1838C1317.42 55.3328 1315.78 53.8674 1313.8 52.9987C1311.82 52.13 1309.62 51.9031 1307.5 52.3504C1306.3 51.0314 1304.77 50.0476 1303.06 49.4978C1301.35 48.948 1299.52 48.8517 1297.76 49.2184C1296 49.5852 1294.37 50.4021 1293.03 51.5871C1291.7 52.7721 1290.7 54.2836 1290.14 55.9696C1288.73 56.2548 1287.4 56.8334 1286.23 57.6669C1285.07 58.5004 1284.1 59.5696 1283.39 60.8029C1282.3 62.6508 1281.83 64.7926 1282.06 66.9188C1282.28 69.045 1283.19 71.0453 1284.64 72.6306C1284.19 73.9768 1284.03 75.4033 1284.18 76.8148C1284.32 78.2263 1284.78 79.5901 1285.5 80.815C1286.58 82.6667 1288.23 84.1324 1290.21 85.0011C1292.19 85.8698 1294.39 86.0965 1296.51 85.6485C1297.47 86.7094 1298.64 87.5572 1299.95 88.1351C1301.27 88.713 1302.69 89.0078 1304.13 88.9998C1306.3 89.0018 1308.41 88.3239 1310.16 87.064C1311.92 85.8041 1313.22 84.0273 1313.88 81.9902C1315.29 81.7046 1316.62 81.1257 1317.79 80.2922C1318.95 79.4587 1319.92 78.3898 1320.64 77.1567C1321.71 75.3116 1322.17 73.1778 1321.94 71.0605C1321.72 68.9432 1320.82 66.9508 1319.37 65.3684ZM1304.13 86.3818C1302.35 86.3846 1300.63 85.7705 1299.27 84.6472L1299.51 84.5132L1307.58 79.9162C1307.78 79.8 1307.95 79.6341 1308.07 79.4351C1308.18 79.236 1308.24 79.0105 1308.25 78.7807V67.5526L1311.66 69.5002C1311.68 69.5087 1311.69 69.5209 1311.7 69.536C1311.71 69.551 1311.72 69.5685 1311.72 69.5869V78.8912C1311.72 80.8766 1310.92 82.7794 1309.49 84.1833C1308.07 85.5871 1306.14 86.3777 1304.13 86.3818ZM1287.81 79.5062C1286.91 77.9889 1286.6 76.2103 1286.9 74.4834L1287.14 74.6254L1295.22 79.2224C1295.42 79.3381 1295.65 79.3991 1295.88 79.3991C1296.12 79.3991 1296.34 79.3381 1296.54 79.2224L1306.42 73.6082V77.4955C1306.41 77.5157 1306.41 77.5354 1306.4 77.5531C1306.39 77.5709 1306.38 77.5862 1306.36 77.598L1298.18 82.2502C1296.44 83.2419 1294.36 83.5099 1292.42 82.9954C1290.47 82.481 1288.81 81.226 1287.81 79.5062ZM1285.68 62.1593C1286.58 60.6322 1287.99 59.4675 1289.68 58.8713V68.3332C1289.67 68.5618 1289.73 68.787 1289.85 68.9854C1289.96 69.1837 1290.13 69.3478 1290.33 69.4607L1300.16 75.0512L1296.74 76.9987C1296.72 77.0084 1296.7 77.0134 1296.68 77.0134C1296.66 77.0134 1296.64 77.0084 1296.62 76.9987L1288.46 72.3546C1286.72 71.3586 1285.45 69.7223 1284.93 67.804C1284.41 65.8858 1284.68 63.8419 1285.68 62.1199V62.1593ZM1313.72 68.5856L1303.87 62.9399L1307.27 60.9999C1307.29 60.9902 1307.31 60.9852 1307.33 60.9852C1307.35 60.9852 1307.37 60.9902 1307.39 60.9999L1315.55 65.6521C1316.8 66.3623 1317.82 67.4081 1318.48 68.6672C1319.15 69.9264 1319.44 71.347 1319.32 72.7632C1319.2 74.1794 1318.68 75.5328 1317.81 76.6653C1316.94 77.7978 1315.76 78.6627 1314.41 79.159V69.6971C1314.4 69.4689 1314.33 69.2464 1314.21 69.0515C1314.09 68.8566 1313.92 68.6961 1313.72 68.5856ZM1317.12 63.5471L1316.88 63.4051L1308.81 58.7688C1308.61 58.6523 1308.38 58.5909 1308.15 58.5909C1307.92 58.5909 1307.69 58.6523 1307.49 58.7688L1297.62 64.3827V60.4956C1297.62 60.4758 1297.62 60.4559 1297.63 60.4378C1297.64 60.4198 1297.65 60.4043 1297.67 60.3931L1305.83 55.7488C1307.08 55.038 1308.51 54.6932 1309.95 54.7547C1311.4 54.8162 1312.79 55.2816 1313.98 56.0962C1315.16 56.9109 1316.08 58.0413 1316.64 59.3551C1317.2 60.669 1317.36 62.112 1317.12 63.5154L1317.12 63.5471ZM1295.76 70.4382L1292.35 68.4986C1292.33 68.4884 1292.31 68.4747 1292.3 68.4584C1292.29 68.442 1292.29 68.4235 1292.28 68.4041V59.1236C1292.28 57.6999 1292.7 56.3061 1293.47 55.1053C1294.25 53.9044 1295.35 52.9461 1296.66 52.3423C1297.97 51.7386 1299.42 51.5144 1300.85 51.6959C1302.28 51.8774 1303.63 52.4572 1304.74 53.3674L1304.5 53.5016L1296.43 58.0983C1296.23 58.2145 1296.06 58.3803 1295.95 58.5794C1295.83 58.7785 1295.77 59.004 1295.77 59.2338L1295.76 70.4382ZM1297.61 66.4959L1302.01 63.9962L1306.42 66.4959V71.4949L1302.03 73.9944L1297.62 71.4949L1297.61 66.4959Z" fill="white"/>
<path d="M1269.98 62C1267.24 62 1264.94 63.8041 1264.16 66.2676H1256.82C1255.81 66.2676 1255 67.0772 1255 68.0764L1255 76.2796C1252.51 77.0544 1250.69 79.3337 1250.69 82.0488C1250.69 84.7646 1252.51 87.0431 1255 87.8187V94.1141L1248.96 94.1164C1248.18 91.6521 1245.88 89.8488 1243.13 89.8488C1239.75 89.8488 1237 92.5739 1237 95.9252C1237 99.2741 1239.75 102 1243.13 102C1245.88 102 1248.18 100.197 1248.96 97.7339L1256.82 97.7324C1257.83 97.7324 1258.65 96.922 1258.65 95.9228V87.8194C1261.14 87.0439 1262.96 84.7654 1262.96 82.0495C1262.96 79.3345 1261.14 77.0551 1258.65 76.2804L1258.65 69.8859H1264.16C1264.94 72.3487 1267.24 74.1512 1269.98 74.1512C1273.37 74.1512 1276.12 71.4261 1276.12 68.0772C1276.12 64.7267 1273.37 62 1269.98 62ZM1243.13 98.3825C1241.77 98.3825 1240.65 97.2796 1240.65 95.9252C1240.65 94.5699 1241.77 93.4663 1243.13 93.4663C1244.5 93.4663 1245.62 94.5699 1245.62 95.9252C1245.62 97.2796 1244.5 98.3825 1243.13 98.3825ZM1256.82 84.5069C1255.45 84.5069 1254.34 83.4047 1254.34 82.0488C1254.34 80.6935 1255.45 79.5907 1256.82 79.5907C1258.19 79.5907 1259.3 80.6935 1259.3 82.0488C1259.3 83.4047 1258.19 84.5069 1256.82 84.5069ZM1269.98 70.5337C1268.62 70.5337 1267.5 69.4316 1267.5 68.0772C1267.5 66.722 1268.62 65.6183 1269.98 65.6183C1271.35 65.6183 1272.47 66.722 1272.47 68.0772C1272.47 69.4308 1271.35 70.5337 1269.98 70.5337Z" fill="white"/>
<path d="M1213.27 105.198L1210.93 109.63C1210.93 109.63 1207.8 96.0343 1218.59 88.3318C1223.01 100.83 1212.64 110.168 1212.64 110.168L1213.27 105.195" stroke="white" stroke-width="1.25" stroke-linecap="round" stroke-linejoin="round"/>
<path d="M1199.73 90.7554C1205.31 91.1206 1209.95 96.7979 1209.95 96.7979C1208.56 100.075 1208.18 103.694 1208.86 107.19C1203.69 102.666 1198.9 97.9736 1199.73 90.7554Z" stroke="white" stroke-width="1.25" stroke-linecap="round" stroke-linejoin="round"/>
<path d="M1190.07 108.165C1196.44 112.336 1203.71 114.91 1211.29 115.668C1207.5 106.896 1200.76 103.752 1190.07 108.165Z" stroke="white" stroke-width="1.25" stroke-linecap="round" stroke-linejoin="round"/>
<path d="M1212.78 115.62C1224.27 115.038 1233.92 108.316 1233.93 108.25C1224.16 104.036 1217.06 106.376 1212.78 115.62Z" stroke="white" stroke-width="1.25" stroke-linecap="round" stroke-linejoin="round"/>
</svg>
