<svg width="1363" height="163" viewBox="0 0 1363 163" fill="none" xmlns="http://www.w3.org/2000/svg">
<path d="M0 15C0 6.71573 6.71573 0 15 0H37V163H15C6.71573 163 0 156.284 0 148V15Z" fill="#424242"/>
<rect width="1097" height="163" transform="translate(37)" fill="#F0F0F0"/>
<path d="M101.906 53.9219L94.3945 51.2383V48.0859L104.602 52.375V54.6367L101.906 53.9219ZM94.3945 56.1719L101.918 53.4297L104.602 52.7852V55.0352L94.3945 59.3242V56.1719ZM116.414 43.9375V61H112.898V43.9375H116.414ZM123.211 51.2266V53.9688H115.453V51.2266H123.211ZM124.031 43.9375V46.6914H115.453V43.9375H124.031ZM129.422 43V61H126.035V43H129.422ZM131.672 54.7891V54.543C131.672 53.6133 131.805 52.7578 132.07 51.9766C132.336 51.1875 132.723 50.5039 133.23 49.9258C133.738 49.3477 134.363 48.8984 135.105 48.5781C135.848 48.25 136.699 48.0859 137.66 48.0859C138.621 48.0859 139.477 48.25 140.227 48.5781C140.977 48.8984 141.605 49.3477 142.113 49.9258C142.629 50.5039 143.02 51.1875 143.285 51.9766C143.551 52.7578 143.684 53.6133 143.684 54.543V54.7891C143.684 55.7109 143.551 56.5664 143.285 57.3555C143.02 58.1367 142.629 58.8203 142.113 59.4062C141.605 59.9844 140.98 60.4336 140.238 60.7539C139.496 61.0742 138.645 61.2344 137.684 61.2344C136.723 61.2344 135.867 61.0742 135.117 60.7539C134.375 60.4336 133.746 59.9844 133.23 59.4062C132.723 58.8203 132.336 58.1367 132.07 57.3555C131.805 56.5664 131.672 55.7109 131.672 54.7891ZM135.047 54.543V54.7891C135.047 55.3203 135.094 55.8164 135.188 56.2773C135.281 56.7383 135.43 57.1445 135.633 57.4961C135.844 57.8398 136.117 58.1094 136.453 58.3047C136.789 58.5 137.199 58.5977 137.684 58.5977C138.152 58.5977 138.555 58.5 138.891 58.3047C139.227 58.1094 139.496 57.8398 139.699 57.4961C139.902 57.1445 140.051 56.7383 140.145 56.2773C140.246 55.8164 140.297 55.3203 140.297 54.7891V54.543C140.297 54.0273 140.246 53.543 140.145 53.0898C140.051 52.6289 139.898 52.2227 139.688 51.8711C139.484 51.5117 139.215 51.2305 138.879 51.0273C138.543 50.8242 138.137 50.7227 137.66 50.7227C137.184 50.7227 136.777 50.8242 136.441 51.0273C136.113 51.2305 135.844 51.5117 135.633 51.8711C135.43 52.2227 135.281 52.6289 135.188 53.0898C135.094 53.543 135.047 54.0273 135.047 54.543ZM149.133 51.0859V61H145.758V48.3203H148.934L149.133 51.0859ZM152.953 48.2383L152.895 51.3672C152.73 51.3438 152.531 51.3242 152.297 51.3086C152.07 51.2852 151.863 51.2734 151.676 51.2734C151.199 51.2734 150.785 51.3359 150.434 51.4609C150.09 51.5781 149.801 51.7539 149.566 51.9883C149.34 52.2227 149.168 52.5078 149.051 52.8438C148.941 53.1797 148.879 53.5625 148.863 53.9922L148.184 53.7812C148.184 52.9609 148.266 52.207 148.43 51.5195C148.594 50.8242 148.832 50.2188 149.145 49.7031C149.465 49.1875 149.855 48.7891 150.316 48.5078C150.777 48.2266 151.305 48.0859 151.898 48.0859C152.086 48.0859 152.277 48.1016 152.473 48.1328C152.668 48.1562 152.828 48.1914 152.953 48.2383ZM160.992 58.1406V52.4922C160.992 52.0859 160.926 51.7383 160.793 51.4492C160.66 51.1523 160.453 50.9219 160.172 50.7578C159.898 50.5938 159.543 50.5117 159.105 50.5117C158.73 50.5117 158.406 50.5781 158.133 50.7109C157.859 50.8359 157.648 51.0195 157.5 51.2617C157.352 51.4961 157.277 51.7734 157.277 52.0938H153.902C153.902 51.5547 154.027 51.043 154.277 50.5586C154.527 50.0742 154.891 49.6484 155.367 49.2812C155.844 48.9062 156.41 48.6133 157.066 48.4023C157.73 48.1914 158.473 48.0859 159.293 48.0859C160.277 48.0859 161.152 48.25 161.918 48.5781C162.684 48.9062 163.285 49.3984 163.723 50.0547C164.168 50.7109 164.391 51.5312 164.391 52.5156V57.9414C164.391 58.6367 164.434 59.207 164.52 59.6523C164.605 60.0898 164.73 60.4727 164.895 60.8008V61H161.484C161.32 60.6562 161.195 60.2266 161.109 59.7109C161.031 59.1875 160.992 58.6641 160.992 58.1406ZM161.438 53.2773L161.461 55.1875H159.574C159.129 55.1875 158.742 55.2383 158.414 55.3398C158.086 55.4414 157.816 55.5859 157.605 55.7734C157.395 55.9531 157.238 56.1641 157.137 56.4062C157.043 56.6484 156.996 56.9141 156.996 57.2031C156.996 57.4922 157.062 57.7539 157.195 57.9883C157.328 58.2148 157.52 58.3945 157.77 58.5273C158.02 58.6523 158.312 58.7148 158.648 58.7148C159.156 58.7148 159.598 58.6133 159.973 58.4102C160.348 58.207 160.637 57.957 160.84 57.6602C161.051 57.3633 161.16 57.082 161.168 56.8164L162.059 58.2461C161.934 58.5664 161.762 58.8984 161.543 59.2422C161.332 59.5859 161.062 59.9102 160.734 60.2148C160.406 60.5117 160.012 60.7578 159.551 60.9531C159.09 61.1406 158.543 61.2344 157.91 61.2344C157.105 61.2344 156.375 61.0742 155.719 60.7539C155.07 60.4258 154.555 59.9766 154.172 59.4062C153.797 58.8281 153.609 58.1719 153.609 57.4375C153.609 56.7734 153.734 56.1836 153.984 55.668C154.234 55.1523 154.602 54.7188 155.086 54.3672C155.578 54.0078 156.191 53.7383 156.926 53.5586C157.66 53.3711 158.512 53.2773 159.48 53.2773H161.438ZM171.117 58.5391L173.93 48.3203H177.457L173.18 61H171.047L171.117 58.5391ZM169.184 48.3203L172.008 58.5508L172.066 61H169.922L165.645 48.3203H169.184ZM184.641 61.2344C183.656 61.2344 182.773 61.0781 181.992 60.7656C181.211 60.4453 180.547 60.0039 180 59.4414C179.461 58.8789 179.047 58.2266 178.758 57.4844C178.469 56.7344 178.324 55.9375 178.324 55.0938V54.625C178.324 53.6641 178.461 52.7852 178.734 51.9883C179.008 51.1914 179.398 50.5 179.906 49.9141C180.422 49.3281 181.047 48.8789 181.781 48.5664C182.516 48.2461 183.344 48.0859 184.266 48.0859C185.164 48.0859 185.961 48.2344 186.656 48.5312C187.352 48.8281 187.934 49.25 188.402 49.7969C188.879 50.3438 189.238 51 189.48 51.7656C189.723 52.5234 189.844 53.3672 189.844 54.2969V55.7031H179.766V53.4531H186.527V53.1953C186.527 52.7266 186.441 52.3086 186.27 51.9414C186.105 51.5664 185.855 51.2695 185.52 51.0508C185.184 50.832 184.754 50.7227 184.23 50.7227C183.785 50.7227 183.402 50.8203 183.082 51.0156C182.762 51.2109 182.5 51.4844 182.297 51.8359C182.102 52.1875 181.953 52.6016 181.852 53.0781C181.758 53.5469 181.711 54.0625 181.711 54.625V55.0938C181.711 55.6016 181.781 56.0703 181.922 56.5C182.07 56.9297 182.277 57.3008 182.543 57.6133C182.816 57.9258 183.145 58.168 183.527 58.3398C183.918 58.5117 184.359 58.5977 184.852 58.5977C185.461 58.5977 186.027 58.4805 186.551 58.2461C187.082 58.0039 187.539 57.6406 187.922 57.1562L189.562 58.9375C189.297 59.3203 188.934 59.6875 188.473 60.0391C188.02 60.3906 187.473 60.6797 186.832 60.9062C186.191 61.125 185.461 61.2344 184.641 61.2344ZM195.141 51.0859V61H191.766V48.3203H194.941L195.141 51.0859ZM198.961 48.2383L198.902 51.3672C198.738 51.3438 198.539 51.3242 198.305 51.3086C198.078 51.2852 197.871 51.2734 197.684 51.2734C197.207 51.2734 196.793 51.3359 196.441 51.4609C196.098 51.5781 195.809 51.7539 195.574 51.9883C195.348 52.2227 195.176 52.5078 195.059 52.8438C194.949 53.1797 194.887 53.5625 194.871 53.9922L194.191 53.7812C194.191 52.9609 194.273 52.207 194.438 51.5195C194.602 50.8242 194.84 50.2188 195.152 49.7031C195.473 49.1875 195.863 48.7891 196.324 48.5078C196.785 48.2266 197.312 48.0859 197.906 48.0859C198.094 48.0859 198.285 48.1016 198.48 48.1328C198.676 48.1562 198.836 48.1914 198.961 48.2383ZM207.352 48.3203V50.7109H199.969V48.3203H207.352ZM201.797 45.1914H205.172V57.1797C205.172 57.5469 205.219 57.8281 205.312 58.0234C205.414 58.2188 205.562 58.3555 205.758 58.4336C205.953 58.5039 206.199 58.5391 206.496 58.5391C206.707 58.5391 206.895 58.5312 207.059 58.5156C207.23 58.4922 207.375 58.4688 207.492 58.4453L207.504 60.9297C207.215 61.0234 206.902 61.0977 206.566 61.1523C206.23 61.207 205.859 61.2344 205.453 61.2344C204.711 61.2344 204.062 61.1133 203.508 60.8711C202.961 60.6211 202.539 60.2227 202.242 59.6758C201.945 59.1289 201.797 58.4102 201.797 57.5195V45.1914Z" fill="#888888"/>
<path d="M112.125 84.875V119H103.898V84.875H112.125ZM122.391 84.875V91.2266H93.8672V84.875H122.391ZM134.695 112.625V102.172C134.695 101.453 134.594 100.836 134.391 100.32C134.188 99.8047 133.867 99.4062 133.43 99.125C132.992 98.8281 132.406 98.6797 131.672 98.6797C131.078 98.6797 130.57 98.7812 130.148 98.9844C129.727 99.1875 129.406 99.4922 129.188 99.8984C128.969 100.305 128.859 100.82 128.859 101.445H120.961C120.961 100.273 121.219 99.1875 121.734 98.1875C122.266 97.1719 123.016 96.2891 123.984 95.5391C124.969 94.7891 126.141 94.2109 127.5 93.8047C128.875 93.3828 130.406 93.1719 132.094 93.1719C134.109 93.1719 135.906 93.5078 137.484 94.1797C139.078 94.8516 140.336 95.8594 141.258 97.2031C142.18 98.5312 142.641 100.203 142.641 102.219V112.602C142.641 114.258 142.734 115.516 142.922 116.375C143.109 117.219 143.375 117.961 143.719 118.602V119H135.797C135.422 118.219 135.141 117.266 134.953 116.141C134.781 115 134.695 113.828 134.695 112.625ZM135.656 103.508L135.703 107.727H132.211C131.477 107.727 130.852 107.828 130.336 108.031C129.836 108.234 129.43 108.516 129.117 108.875C128.82 109.219 128.602 109.609 128.461 110.047C128.336 110.484 128.273 110.945 128.273 111.43C128.273 111.898 128.383 112.32 128.602 112.695C128.836 113.055 129.148 113.336 129.539 113.539C129.93 113.742 130.367 113.844 130.852 113.844C131.727 113.844 132.469 113.68 133.078 113.352C133.703 113.008 134.18 112.594 134.508 112.109C134.836 111.625 135 111.172 135 110.75L136.734 113.984C136.422 114.609 136.062 115.242 135.656 115.883C135.266 116.523 134.773 117.117 134.18 117.664C133.602 118.195 132.891 118.633 132.047 118.977C131.203 119.305 130.18 119.469 128.977 119.469C127.414 119.469 125.977 119.148 124.664 118.508C123.367 117.867 122.328 116.977 121.547 115.836C120.766 114.68 120.375 113.352 120.375 111.852C120.375 110.539 120.609 109.367 121.078 108.336C121.562 107.305 122.289 106.43 123.258 105.711C124.227 104.992 125.461 104.445 126.961 104.07C128.461 103.695 130.227 103.508 132.258 103.508H135.656ZM147.094 83H154.992V112.766L154.172 119H147.094V83ZM170.555 106.039V106.531C170.555 108.453 170.359 110.203 169.969 111.781C169.578 113.359 168.977 114.727 168.164 115.883C167.352 117.023 166.328 117.906 165.094 118.531C163.859 119.156 162.398 119.469 160.711 119.469C159.18 119.469 157.867 119.141 156.773 118.484C155.68 117.812 154.766 116.891 154.031 115.719C153.297 114.531 152.703 113.164 152.25 111.617C151.797 110.055 151.438 108.383 151.172 106.602V106.016C151.438 104.25 151.797 102.594 152.25 101.047C152.703 99.4844 153.297 98.1172 154.031 96.9453C154.766 95.7578 155.672 94.8359 156.75 94.1797C157.844 93.5078 159.148 93.1719 160.664 93.1719C162.367 93.1719 163.836 93.4922 165.07 94.1328C166.32 94.7734 167.352 95.6719 168.164 96.8281C168.977 97.9844 169.578 99.3438 169.969 100.906C170.359 102.469 170.555 104.18 170.555 106.039ZM162.656 106.531V106.039C162.656 105.117 162.602 104.25 162.492 103.438C162.383 102.625 162.188 101.906 161.906 101.281C161.625 100.656 161.227 100.164 160.711 99.8047C160.195 99.4453 159.523 99.2656 158.695 99.2656C157.852 99.2656 157.141 99.4062 156.562 99.6875C156 99.9688 155.547 100.375 155.203 100.906C154.875 101.422 154.641 102.062 154.5 102.828C154.359 103.578 154.297 104.43 154.312 105.383V107.234C154.281 108.531 154.398 109.641 154.664 110.562C154.93 111.484 155.391 112.188 156.047 112.672C156.703 113.156 157.602 113.398 158.742 113.398C159.586 113.398 160.266 113.234 160.781 112.906C161.312 112.578 161.711 112.109 161.977 111.5C162.242 110.891 162.422 110.164 162.516 109.32C162.609 108.477 162.656 107.547 162.656 106.531ZM182.414 83V119H174.492V83H182.414ZM199.57 119.469C197.508 119.469 195.664 119.148 194.039 118.508C192.414 117.852 191.039 116.953 189.914 115.812C188.805 114.672 187.953 113.359 187.359 111.875C186.781 110.391 186.492 108.82 186.492 107.164V106.273C186.492 104.414 186.75 102.695 187.266 101.117C187.781 99.5234 188.547 98.1328 189.562 96.9453C190.578 95.7578 191.852 94.8359 193.383 94.1797C194.914 93.5078 196.695 93.1719 198.727 93.1719C200.523 93.1719 202.133 93.4609 203.555 94.0391C204.977 94.6172 206.18 95.4453 207.164 96.5234C208.164 97.6016 208.922 98.9062 209.438 100.438C209.969 101.969 210.234 103.688 210.234 105.594V108.805H189.516V103.859H202.523V103.25C202.539 102.406 202.391 101.688 202.078 101.094C201.781 100.5 201.344 100.047 200.766 99.7344C200.188 99.4219 199.484 99.2656 198.656 99.2656C197.797 99.2656 197.086 99.4531 196.523 99.8281C195.977 100.203 195.547 100.719 195.234 101.375C194.938 102.016 194.727 102.758 194.602 103.602C194.477 104.445 194.414 105.336 194.414 106.273V107.164C194.414 108.102 194.539 108.953 194.789 109.719C195.055 110.484 195.43 111.141 195.914 111.688C196.414 112.219 197.008 112.633 197.695 112.93C198.398 113.227 199.195 113.375 200.086 113.375C201.164 113.375 202.227 113.172 203.273 112.766C204.32 112.359 205.219 111.688 205.969 110.75L209.555 115.016C209.039 115.75 208.305 116.461 207.352 117.148C206.414 117.836 205.289 118.398 203.977 118.836C202.664 119.258 201.195 119.469 199.57 119.469ZM224.414 106.578V106.086C224.414 104.227 224.68 102.516 225.211 100.953C225.742 99.375 226.523 98.0078 227.555 96.8516C228.586 95.6953 229.859 94.7969 231.375 94.1562C232.891 93.5 234.641 93.1719 236.625 93.1719C238.625 93.1719 240.383 93.5 241.898 94.1562C243.43 94.7969 244.711 95.6953 245.742 96.8516C246.773 98.0078 247.555 99.375 248.086 100.953C248.617 102.516 248.883 104.227 248.883 106.086V106.578C248.883 108.422 248.617 110.133 248.086 111.711C247.555 113.273 246.773 114.641 245.742 115.812C244.711 116.969 243.438 117.867 241.922 118.508C240.406 119.148 238.656 119.469 236.672 119.469C234.688 119.469 232.93 119.148 231.398 118.508C229.867 117.867 228.586 116.969 227.555 115.812C226.523 114.641 225.742 113.273 225.211 111.711C224.68 110.133 224.414 108.422 224.414 106.578ZM232.312 106.086V106.578C232.312 107.531 232.383 108.422 232.523 109.25C232.664 110.078 232.898 110.805 233.227 111.43C233.555 112.039 234 112.516 234.562 112.859C235.125 113.203 235.828 113.375 236.672 113.375C237.5 113.375 238.188 113.203 238.734 112.859C239.297 112.516 239.742 112.039 240.07 111.43C240.398 110.805 240.633 110.078 240.773 109.25C240.914 108.422 240.984 107.531 240.984 106.578V106.086C240.984 105.164 240.914 104.297 240.773 103.484C240.633 102.656 240.398 101.93 240.07 101.305C239.742 100.664 239.297 100.164 238.734 99.8047C238.172 99.4453 237.469 99.2656 236.625 99.2656C235.797 99.2656 235.102 99.4453 234.539 99.8047C233.992 100.164 233.555 100.664 233.227 101.305C232.898 101.93 232.664 102.656 232.523 103.484C232.383 104.297 232.312 105.164 232.312 106.086ZM262.078 119H254.133V91.5781C254.133 89.6094 254.531 87.9531 255.328 86.6094C256.125 85.2656 257.25 84.25 258.703 83.5625C260.156 82.8594 261.875 82.5078 263.859 82.5078C264.547 82.5078 265.195 82.5547 265.805 82.6484C266.414 82.7422 267.008 82.8594 267.586 83L267.609 88.8125C267.328 88.7344 267.039 88.6797 266.742 88.6484C266.445 88.6172 266.078 88.6016 265.641 88.6016C264.875 88.6016 264.227 88.7188 263.695 88.9531C263.164 89.1719 262.758 89.5078 262.477 89.9609C262.211 90.3984 262.078 90.9375 262.078 91.5781V119ZM267 93.6406V99.125H250.477V93.6406H267ZM301.57 107.445H309.773C309.664 109.82 309.023 111.914 307.852 113.727C306.68 115.539 305.055 116.953 302.977 117.969C300.914 118.969 298.477 119.469 295.664 119.469C293.383 119.469 291.344 119.086 289.547 118.32C287.766 117.555 286.25 116.453 285 115.016C283.766 113.578 282.82 111.836 282.164 109.789C281.523 107.742 281.203 105.438 281.203 102.875V101.023C281.203 98.4609 281.539 96.1562 282.211 94.1094C282.898 92.0469 283.867 90.2969 285.117 88.8594C286.383 87.4062 287.898 86.2969 289.664 85.5312C291.43 84.7656 293.391 84.3828 295.547 84.3828C298.516 84.3828 301.023 84.9141 303.07 85.9766C305.117 87.0391 306.703 88.5 307.828 90.3594C308.953 92.2031 309.617 94.3047 309.82 96.6641H301.617C301.586 95.3828 301.367 94.3125 300.961 93.4531C300.555 92.5781 299.914 91.9219 299.039 91.4844C298.164 91.0469 297 90.8281 295.547 90.8281C294.531 90.8281 293.648 91.0156 292.898 91.3906C292.148 91.7656 291.523 92.3594 291.023 93.1719C290.523 93.9844 290.148 95.0391 289.898 96.3359C289.664 97.6172 289.547 99.1641 289.547 100.977V102.875C289.547 104.688 289.656 106.234 289.875 107.516C290.094 108.797 290.445 109.844 290.93 110.656C291.414 111.469 292.039 112.07 292.805 112.461C293.586 112.836 294.539 113.023 295.664 113.023C296.914 113.023 297.969 112.828 298.828 112.438C299.688 112.031 300.352 111.422 300.82 110.609C301.289 109.781 301.539 108.727 301.57 107.445ZM312.305 106.578V106.086C312.305 104.227 312.57 102.516 313.102 100.953C313.633 99.375 314.414 98.0078 315.445 96.8516C316.477 95.6953 317.75 94.7969 319.266 94.1562C320.781 93.5 322.531 93.1719 324.516 93.1719C326.516 93.1719 328.273 93.5 329.789 94.1562C331.32 94.7969 332.602 95.6953 333.633 96.8516C334.664 98.0078 335.445 99.375 335.977 100.953C336.508 102.516 336.773 104.227 336.773 106.086V106.578C336.773 108.422 336.508 110.133 335.977 111.711C335.445 113.273 334.664 114.641 333.633 115.812C332.602 116.969 331.328 117.867 329.812 118.508C328.297 119.148 326.547 119.469 324.562 119.469C322.578 119.469 320.82 119.148 319.289 118.508C317.758 117.867 316.477 116.969 315.445 115.812C314.414 114.641 313.633 113.273 313.102 111.711C312.57 110.133 312.305 108.422 312.305 106.578ZM320.203 106.086V106.578C320.203 107.531 320.273 108.422 320.414 109.25C320.555 110.078 320.789 110.805 321.117 111.43C321.445 112.039 321.891 112.516 322.453 112.859C323.016 113.203 323.719 113.375 324.562 113.375C325.391 113.375 326.078 113.203 326.625 112.859C327.188 112.516 327.633 112.039 327.961 111.43C328.289 110.805 328.523 110.078 328.664 109.25C328.805 108.422 328.875 107.531 328.875 106.578V106.086C328.875 105.164 328.805 104.297 328.664 103.484C328.523 102.656 328.289 101.93 327.961 101.305C327.633 100.664 327.188 100.164 326.625 99.8047C326.062 99.4453 325.359 99.2656 324.516 99.2656C323.688 99.2656 322.992 99.4453 322.43 99.8047C321.883 100.164 321.445 100.664 321.117 101.305C320.789 101.93 320.555 102.656 320.414 103.484C320.273 104.297 320.203 105.164 320.203 106.086ZM348.047 99.0547V119H340.148V93.6406H347.555L348.047 99.0547ZM347.109 105.453L345.258 105.5C345.258 103.562 345.492 101.836 345.961 100.32C346.43 98.7891 347.094 97.4922 347.953 96.4297C348.812 95.3672 349.836 94.5625 351.023 94.0156C352.227 93.4531 353.562 93.1719 355.031 93.1719C356.203 93.1719 357.273 93.3438 358.242 93.6875C359.227 94.0312 360.07 94.5859 360.773 95.3516C361.492 96.1172 362.039 97.1328 362.414 98.3984C362.805 99.6484 363 101.195 363 103.039V119H355.055V103.016C355.055 102 354.914 101.227 354.633 100.695C354.352 100.148 353.945 99.7734 353.414 99.5703C352.883 99.3672 352.234 99.2656 351.469 99.2656C350.656 99.2656 349.969 99.4219 349.406 99.7344C348.844 100.047 348.391 100.484 348.047 101.047C347.719 101.594 347.477 102.242 347.32 102.992C347.18 103.742 347.109 104.562 347.109 105.453ZM380.742 93.6406V99.125H365.461V93.6406H380.742ZM368.672 87.3359H376.57V110.727C376.57 111.398 376.648 111.922 376.805 112.297C376.961 112.656 377.227 112.914 377.602 113.07C377.992 113.211 378.508 113.281 379.148 113.281C379.602 113.281 379.977 113.273 380.273 113.258C380.57 113.227 380.852 113.188 381.117 113.141V118.789C380.445 119.008 379.742 119.172 379.008 119.281C378.273 119.406 377.492 119.469 376.664 119.469C374.977 119.469 373.531 119.203 372.328 118.672C371.141 118.141 370.234 117.305 369.609 116.164C368.984 115.023 368.672 113.539 368.672 111.711V87.3359ZM396.164 119.469C394.102 119.469 392.258 119.148 390.633 118.508C389.008 117.852 387.633 116.953 386.508 115.812C385.398 114.672 384.547 113.359 383.953 111.875C383.375 110.391 383.086 108.82 383.086 107.164V106.273C383.086 104.414 383.344 102.695 383.859 101.117C384.375 99.5234 385.141 98.1328 386.156 96.9453C387.172 95.7578 388.445 94.8359 389.977 94.1797C391.508 93.5078 393.289 93.1719 395.32 93.1719C397.117 93.1719 398.727 93.4609 400.148 94.0391C401.57 94.6172 402.773 95.4453 403.758 96.5234C404.758 97.6016 405.516 98.9062 406.031 100.438C406.562 101.969 406.828 103.688 406.828 105.594V108.805H386.109V103.859H399.117V103.25C399.133 102.406 398.984 101.688 398.672 101.094C398.375 100.5 397.938 100.047 397.359 99.7344C396.781 99.4219 396.078 99.2656 395.25 99.2656C394.391 99.2656 393.68 99.4531 393.117 99.8281C392.57 100.203 392.141 100.719 391.828 101.375C391.531 102.016 391.32 102.758 391.195 103.602C391.07 104.445 391.008 105.336 391.008 106.273V107.164C391.008 108.102 391.133 108.953 391.383 109.719C391.648 110.484 392.023 111.141 392.508 111.688C393.008 112.219 393.602 112.633 394.289 112.93C394.992 113.227 395.789 113.375 396.68 113.375C397.758 113.375 398.82 113.172 399.867 112.766C400.914 112.359 401.812 111.688 402.562 110.75L406.148 115.016C405.633 115.75 404.898 116.461 403.945 117.148C403.008 117.836 401.883 118.398 400.57 118.836C399.258 119.258 397.789 119.469 396.164 119.469ZM417.797 99.0547V119H409.898V93.6406H417.305L417.797 99.0547ZM416.859 105.453L415.008 105.5C415.008 103.562 415.242 101.836 415.711 100.32C416.18 98.7891 416.844 97.4922 417.703 96.4297C418.562 95.3672 419.586 94.5625 420.773 94.0156C421.977 93.4531 423.312 93.1719 424.781 93.1719C425.953 93.1719 427.023 93.3438 427.992 93.6875C428.977 94.0312 429.82 94.5859 430.523 95.3516C431.242 96.1172 431.789 97.1328 432.164 98.3984C432.555 99.6484 432.75 101.195 432.75 103.039V119H424.805V103.016C424.805 102 424.664 101.227 424.383 100.695C424.102 100.148 423.695 99.7734 423.164 99.5703C422.633 99.3672 421.984 99.2656 421.219 99.2656C420.406 99.2656 419.719 99.4219 419.156 99.7344C418.594 100.047 418.141 100.484 417.797 101.047C417.469 101.594 417.227 102.242 417.07 102.992C416.93 103.742 416.859 104.562 416.859 105.453ZM450.492 93.6406V99.125H435.211V93.6406H450.492ZM438.422 87.3359H446.32V110.727C446.32 111.398 446.398 111.922 446.555 112.297C446.711 112.656 446.977 112.914 447.352 113.07C447.742 113.211 448.258 113.281 448.898 113.281C449.352 113.281 449.727 113.273 450.023 113.258C450.32 113.227 450.602 113.188 450.867 113.141V118.789C450.195 119.008 449.492 119.172 448.758 119.281C448.023 119.406 447.242 119.469 446.414 119.469C444.727 119.469 443.281 119.203 442.078 118.672C440.891 118.141 439.984 117.305 439.359 116.164C438.734 115.023 438.422 113.539 438.422 111.711V87.3359Z" fill="black"/>
<path d="M1134 0H1348C1356.28 0 1363 6.71573 1363 15V148C1363 156.284 1356.28 163 1348 163H1134V0Z" fill="#23BA32"/>
<path d="M1234.26 103.786H1262.74V109.357H1234.26V103.786ZM1239.96 114.929H1257.04V120.5H1239.96V114.929ZM1248.5 42.5C1240.95 42.5 1233.71 45.4349 1228.37 50.6592C1223.03 55.8834 1220.03 62.969 1220.03 70.3571C1219.84 74.4057 1220.63 78.4412 1222.34 82.1315C1224.05 85.8219 1226.64 89.0616 1229.88 91.5843C1232.73 94.175 1234.26 95.6514 1234.26 98.2143H1239.96C1239.96 93.0886 1236.8 90.2193 1233.72 87.4614C1231.06 85.4676 1228.94 82.8658 1227.55 79.8838C1226.15 76.9019 1225.53 73.6308 1225.72 70.3571C1225.72 64.4466 1228.12 58.7781 1232.39 54.5988C1236.67 50.4194 1242.46 48.0714 1248.5 48.0714C1254.54 48.0714 1260.33 50.4194 1264.61 54.5988C1268.88 58.7781 1271.28 64.4466 1271.28 70.3571C1271.47 73.6333 1270.84 76.9059 1269.44 79.888C1268.04 82.8701 1265.92 85.4706 1263.25 87.4614C1260.2 90.2471 1257.04 93.0329 1257.04 98.2143H1262.74C1262.74 95.6514 1264.25 94.175 1267.12 91.5564C1270.36 89.0381 1272.94 85.8031 1274.66 82.1176C1276.37 78.4321 1277.16 74.4014 1276.97 70.3571C1276.97 66.6989 1276.24 63.0765 1274.81 59.6967C1273.37 56.3169 1271.28 53.2459 1268.63 50.6592C1265.99 48.0724 1262.85 46.0205 1259.4 44.6205C1255.94 43.2205 1252.24 42.5 1248.5 42.5V42.5Z" fill="white"/>
</svg>
