<svg width="1363" height="163" viewBox="0 0 1363 163" fill="none" xmlns="http://www.w3.org/2000/svg">
<path d="M0 15C0 6.71573 6.71573 0 15 0H37V163H15C6.71573 163 0 156.284 0 148V15Z" fill="#23BA32"/>
<rect width="1097" height="163" transform="translate(37)" fill="#F0F0F0"/>
<path d="M101.906 53.9219L94.3945 51.2383V48.0859L104.602 52.375V54.6367L101.906 53.9219ZM94.3945 56.1719L101.918 53.4297L104.602 52.7852V55.0352L94.3945 59.3242V56.1719ZM116.414 43.9375V61H112.898V43.9375H116.414ZM123.211 51.2266V53.9688H115.453V51.2266H123.211ZM124.031 43.9375V46.6914H115.453V43.9375H124.031ZM129.422 43V61H126.035V43H129.422ZM131.672 54.7891V54.543C131.672 53.6133 131.805 52.7578 132.07 51.9766C132.336 51.1875 132.723 50.5039 133.23 49.9258C133.738 49.3477 134.363 48.8984 135.105 48.5781C135.848 48.25 136.699 48.0859 137.66 48.0859C138.621 48.0859 139.477 48.25 140.227 48.5781C140.977 48.8984 141.605 49.3477 142.113 49.9258C142.629 50.5039 143.02 51.1875 143.285 51.9766C143.551 52.7578 143.684 53.6133 143.684 54.543V54.7891C143.684 55.7109 143.551 56.5664 143.285 57.3555C143.02 58.1367 142.629 58.8203 142.113 59.4062C141.605 59.9844 140.98 60.4336 140.238 60.7539C139.496 61.0742 138.645 61.2344 137.684 61.2344C136.723 61.2344 135.867 61.0742 135.117 60.7539C134.375 60.4336 133.746 59.9844 133.23 59.4062C132.723 58.8203 132.336 58.1367 132.07 57.3555C131.805 56.5664 131.672 55.7109 131.672 54.7891ZM135.047 54.543V54.7891C135.047 55.3203 135.094 55.8164 135.188 56.2773C135.281 56.7383 135.43 57.1445 135.633 57.4961C135.844 57.8398 136.117 58.1094 136.453 58.3047C136.789 58.5 137.199 58.5977 137.684 58.5977C138.152 58.5977 138.555 58.5 138.891 58.3047C139.227 58.1094 139.496 57.8398 139.699 57.4961C139.902 57.1445 140.051 56.7383 140.145 56.2773C140.246 55.8164 140.297 55.3203 140.297 54.7891V54.543C140.297 54.0273 140.246 53.543 140.145 53.0898C140.051 52.6289 139.898 52.2227 139.688 51.8711C139.484 51.5117 139.215 51.2305 138.879 51.0273C138.543 50.8242 138.137 50.7227 137.66 50.7227C137.184 50.7227 136.777 50.8242 136.441 51.0273C136.113 51.2305 135.844 51.5117 135.633 51.8711C135.43 52.2227 135.281 52.6289 135.188 53.0898C135.094 53.543 135.047 54.0273 135.047 54.543ZM149.133 51.0859V61H145.758V48.3203H148.934L149.133 51.0859ZM152.953 48.2383L152.895 51.3672C152.73 51.3438 152.531 51.3242 152.297 51.3086C152.07 51.2852 151.863 51.2734 151.676 51.2734C151.199 51.2734 150.785 51.3359 150.434 51.4609C150.09 51.5781 149.801 51.7539 149.566 51.9883C149.34 52.2227 149.168 52.5078 149.051 52.8438C148.941 53.1797 148.879 53.5625 148.863 53.9922L148.184 53.7812C148.184 52.9609 148.266 52.207 148.43 51.5195C148.594 50.8242 148.832 50.2188 149.145 49.7031C149.465 49.1875 149.855 48.7891 150.316 48.5078C150.777 48.2266 151.305 48.0859 151.898 48.0859C152.086 48.0859 152.277 48.1016 152.473 48.1328C152.668 48.1562 152.828 48.1914 152.953 48.2383ZM160.992 58.1406V52.4922C160.992 52.0859 160.926 51.7383 160.793 51.4492C160.66 51.1523 160.453 50.9219 160.172 50.7578C159.898 50.5938 159.543 50.5117 159.105 50.5117C158.73 50.5117 158.406 50.5781 158.133 50.7109C157.859 50.8359 157.648 51.0195 157.5 51.2617C157.352 51.4961 157.277 51.7734 157.277 52.0938H153.902C153.902 51.5547 154.027 51.043 154.277 50.5586C154.527 50.0742 154.891 49.6484 155.367 49.2812C155.844 48.9062 156.41 48.6133 157.066 48.4023C157.73 48.1914 158.473 48.0859 159.293 48.0859C160.277 48.0859 161.152 48.25 161.918 48.5781C162.684 48.9062 163.285 49.3984 163.723 50.0547C164.168 50.7109 164.391 51.5312 164.391 52.5156V57.9414C164.391 58.6367 164.434 59.207 164.52 59.6523C164.605 60.0898 164.73 60.4727 164.895 60.8008V61H161.484C161.32 60.6562 161.195 60.2266 161.109 59.7109C161.031 59.1875 160.992 58.6641 160.992 58.1406ZM161.438 53.2773L161.461 55.1875H159.574C159.129 55.1875 158.742 55.2383 158.414 55.3398C158.086 55.4414 157.816 55.5859 157.605 55.7734C157.395 55.9531 157.238 56.1641 157.137 56.4062C157.043 56.6484 156.996 56.9141 156.996 57.2031C156.996 57.4922 157.062 57.7539 157.195 57.9883C157.328 58.2148 157.52 58.3945 157.77 58.5273C158.02 58.6523 158.312 58.7148 158.648 58.7148C159.156 58.7148 159.598 58.6133 159.973 58.4102C160.348 58.207 160.637 57.957 160.84 57.6602C161.051 57.3633 161.16 57.082 161.168 56.8164L162.059 58.2461C161.934 58.5664 161.762 58.8984 161.543 59.2422C161.332 59.5859 161.062 59.9102 160.734 60.2148C160.406 60.5117 160.012 60.7578 159.551 60.9531C159.09 61.1406 158.543 61.2344 157.91 61.2344C157.105 61.2344 156.375 61.0742 155.719 60.7539C155.07 60.4258 154.555 59.9766 154.172 59.4062C153.797 58.8281 153.609 58.1719 153.609 57.4375C153.609 56.7734 153.734 56.1836 153.984 55.668C154.234 55.1523 154.602 54.7188 155.086 54.3672C155.578 54.0078 156.191 53.7383 156.926 53.5586C157.66 53.3711 158.512 53.2773 159.48 53.2773H161.438ZM171.117 58.5391L173.93 48.3203H177.457L173.18 61H171.047L171.117 58.5391ZM169.184 48.3203L172.008 58.5508L172.066 61H169.922L165.645 48.3203H169.184ZM184.641 61.2344C183.656 61.2344 182.773 61.0781 181.992 60.7656C181.211 60.4453 180.547 60.0039 180 59.4414C179.461 58.8789 179.047 58.2266 178.758 57.4844C178.469 56.7344 178.324 55.9375 178.324 55.0938V54.625C178.324 53.6641 178.461 52.7852 178.734 51.9883C179.008 51.1914 179.398 50.5 179.906 49.9141C180.422 49.3281 181.047 48.8789 181.781 48.5664C182.516 48.2461 183.344 48.0859 184.266 48.0859C185.164 48.0859 185.961 48.2344 186.656 48.5312C187.352 48.8281 187.934 49.25 188.402 49.7969C188.879 50.3438 189.238 51 189.48 51.7656C189.723 52.5234 189.844 53.3672 189.844 54.2969V55.7031H179.766V53.4531H186.527V53.1953C186.527 52.7266 186.441 52.3086 186.27 51.9414C186.105 51.5664 185.855 51.2695 185.52 51.0508C185.184 50.832 184.754 50.7227 184.23 50.7227C183.785 50.7227 183.402 50.8203 183.082 51.0156C182.762 51.2109 182.5 51.4844 182.297 51.8359C182.102 52.1875 181.953 52.6016 181.852 53.0781C181.758 53.5469 181.711 54.0625 181.711 54.625V55.0938C181.711 55.6016 181.781 56.0703 181.922 56.5C182.07 56.9297 182.277 57.3008 182.543 57.6133C182.816 57.9258 183.145 58.168 183.527 58.3398C183.918 58.5117 184.359 58.5977 184.852 58.5977C185.461 58.5977 186.027 58.4805 186.551 58.2461C187.082 58.0039 187.539 57.6406 187.922 57.1562L189.562 58.9375C189.297 59.3203 188.934 59.6875 188.473 60.0391C188.02 60.3906 187.473 60.6797 186.832 60.9062C186.191 61.125 185.461 61.2344 184.641 61.2344ZM195.141 51.0859V61H191.766V48.3203H194.941L195.141 51.0859ZM198.961 48.2383L198.902 51.3672C198.738 51.3438 198.539 51.3242 198.305 51.3086C198.078 51.2852 197.871 51.2734 197.684 51.2734C197.207 51.2734 196.793 51.3359 196.441 51.4609C196.098 51.5781 195.809 51.7539 195.574 51.9883C195.348 52.2227 195.176 52.5078 195.059 52.8438C194.949 53.1797 194.887 53.5625 194.871 53.9922L194.191 53.7812C194.191 52.9609 194.273 52.207 194.438 51.5195C194.602 50.8242 194.84 50.2188 195.152 49.7031C195.473 49.1875 195.863 48.7891 196.324 48.5078C196.785 48.2266 197.312 48.0859 197.906 48.0859C198.094 48.0859 198.285 48.1016 198.48 48.1328C198.676 48.1562 198.836 48.1914 198.961 48.2383ZM207.352 48.3203V50.7109H199.969V48.3203H207.352ZM201.797 45.1914H205.172V57.1797C205.172 57.5469 205.219 57.8281 205.312 58.0234C205.414 58.2188 205.562 58.3555 205.758 58.4336C205.953 58.5039 206.199 58.5391 206.496 58.5391C206.707 58.5391 206.895 58.5312 207.059 58.5156C207.23 58.4922 207.375 58.4688 207.492 58.4453L207.504 60.9297C207.215 61.0234 206.902 61.0977 206.566 61.1523C206.23 61.207 205.859 61.2344 205.453 61.2344C204.711 61.2344 204.062 61.1133 203.508 60.8711C202.961 60.6211 202.539 60.2227 202.242 59.6758C201.945 59.1289 201.797 58.4102 201.797 57.5195V45.1914Z" fill="#888888"/>
<path d="M109.219 107.422H100.734V101.07H109.219C110.375 101.07 111.312 100.875 112.031 100.484C112.75 100.094 113.273 99.5547 113.602 98.8672C113.945 98.1641 114.117 97.375 114.117 96.5C114.117 95.5625 113.945 94.6953 113.602 93.8984C113.273 93.1016 112.75 92.4609 112.031 91.9766C111.312 91.4766 110.375 91.2266 109.219 91.2266H103.828V119H95.6016V84.875H109.219C111.953 84.875 114.305 85.375 116.273 86.375C118.258 87.375 119.781 88.75 120.844 90.5C121.906 92.2344 122.438 94.2188 122.438 96.4531C122.438 98.6562 121.906 100.578 120.844 102.219C119.781 103.859 118.258 105.141 116.273 106.062C114.305 106.969 111.953 107.422 109.219 107.422ZM134.461 99.9219V119H126.562V93.6406H133.945L134.461 99.9219ZM141.961 93.4531L141.82 100.789C141.508 100.758 141.086 100.719 140.555 100.672C140.023 100.625 139.578 100.602 139.219 100.602C138.297 100.602 137.5 100.711 136.828 100.93C136.172 101.133 135.625 101.445 135.188 101.867C134.766 102.273 134.453 102.789 134.25 103.414C134.062 104.039 133.977 104.766 133.992 105.594L132.562 104.656C132.562 102.953 132.727 101.406 133.055 100.016C133.398 98.6094 133.883 97.3984 134.508 96.3828C135.133 95.3516 135.891 94.5625 136.781 94.0156C137.672 93.4531 138.672 93.1719 139.781 93.1719C140.172 93.1719 140.555 93.1953 140.93 93.2422C141.32 93.2891 141.664 93.3594 141.961 93.4531ZM142.852 106.578V106.086C142.852 104.227 143.117 102.516 143.648 100.953C144.18 99.375 144.961 98.0078 145.992 96.8516C147.023 95.6953 148.297 94.7969 149.812 94.1562C151.328 93.5 153.078 93.1719 155.062 93.1719C157.062 93.1719 158.82 93.5 160.336 94.1562C161.867 94.7969 163.148 95.6953 164.18 96.8516C165.211 98.0078 165.992 99.375 166.523 100.953C167.055 102.516 167.32 104.227 167.32 106.086V106.578C167.32 108.422 167.055 110.133 166.523 111.711C165.992 113.273 165.211 114.641 164.18 115.812C163.148 116.969 161.875 117.867 160.359 118.508C158.844 119.148 157.094 119.469 155.109 119.469C153.125 119.469 151.367 119.148 149.836 118.508C148.305 117.867 147.023 116.969 145.992 115.812C144.961 114.641 144.18 113.273 143.648 111.711C143.117 110.133 142.852 108.422 142.852 106.578ZM150.75 106.086V106.578C150.75 107.531 150.82 108.422 150.961 109.25C151.102 110.078 151.336 110.805 151.664 111.43C151.992 112.039 152.438 112.516 153 112.859C153.562 113.203 154.266 113.375 155.109 113.375C155.938 113.375 156.625 113.203 157.172 112.859C157.734 112.516 158.18 112.039 158.508 111.43C158.836 110.805 159.07 110.078 159.211 109.25C159.352 108.422 159.422 107.531 159.422 106.578V106.086C159.422 105.164 159.352 104.297 159.211 103.484C159.07 102.656 158.836 101.93 158.508 101.305C158.18 100.664 157.734 100.164 157.172 99.8047C156.609 99.4453 155.906 99.2656 155.062 99.2656C154.234 99.2656 153.539 99.4453 152.977 99.8047C152.43 100.164 151.992 100.664 151.664 101.305C151.336 101.93 151.102 102.656 150.961 103.484C150.82 104.297 150.75 105.164 150.75 106.086ZM184.195 93.6406V99.125H168.914V93.6406H184.195ZM172.125 87.3359H180.023V110.727C180.023 111.398 180.102 111.922 180.258 112.297C180.414 112.656 180.68 112.914 181.055 113.07C181.445 113.211 181.961 113.281 182.602 113.281C183.055 113.281 183.43 113.273 183.727 113.258C184.023 113.227 184.305 113.188 184.57 113.141V118.789C183.898 119.008 183.195 119.172 182.461 119.281C181.727 119.406 180.945 119.469 180.117 119.469C178.43 119.469 176.984 119.203 175.781 118.672C174.594 118.141 173.688 117.305 173.062 116.164C172.438 115.023 172.125 113.539 172.125 111.711V87.3359ZM185.648 106.578V106.086C185.648 104.227 185.914 102.516 186.445 100.953C186.977 99.375 187.758 98.0078 188.789 96.8516C189.82 95.6953 191.094 94.7969 192.609 94.1562C194.125 93.5 195.875 93.1719 197.859 93.1719C199.859 93.1719 201.617 93.5 203.133 94.1562C204.664 94.7969 205.945 95.6953 206.977 96.8516C208.008 98.0078 208.789 99.375 209.32 100.953C209.852 102.516 210.117 104.227 210.117 106.086V106.578C210.117 108.422 209.852 110.133 209.32 111.711C208.789 113.273 208.008 114.641 206.977 115.812C205.945 116.969 204.672 117.867 203.156 118.508C201.641 119.148 199.891 119.469 197.906 119.469C195.922 119.469 194.164 119.148 192.633 118.508C191.102 117.867 189.82 116.969 188.789 115.812C187.758 114.641 186.977 113.273 186.445 111.711C185.914 110.133 185.648 108.422 185.648 106.578ZM193.547 106.086V106.578C193.547 107.531 193.617 108.422 193.758 109.25C193.898 110.078 194.133 110.805 194.461 111.43C194.789 112.039 195.234 112.516 195.797 112.859C196.359 113.203 197.062 113.375 197.906 113.375C198.734 113.375 199.422 113.203 199.969 112.859C200.531 112.516 200.977 112.039 201.305 111.43C201.633 110.805 201.867 110.078 202.008 109.25C202.148 108.422 202.219 107.531 202.219 106.578V106.086C202.219 105.164 202.148 104.297 202.008 103.484C201.867 102.656 201.633 101.93 201.305 101.305C200.977 100.664 200.531 100.164 199.969 99.8047C199.406 99.4453 198.703 99.2656 197.859 99.2656C197.031 99.2656 196.336 99.4453 195.773 99.8047C195.227 100.164 194.789 100.664 194.461 101.305C194.133 101.93 193.898 102.656 193.758 103.484C193.617 104.297 193.547 105.164 193.547 106.086ZM226.992 93.6406V99.125H211.711V93.6406H226.992ZM214.922 87.3359H222.82V110.727C222.82 111.398 222.898 111.922 223.055 112.297C223.211 112.656 223.477 112.914 223.852 113.07C224.242 113.211 224.758 113.281 225.398 113.281C225.852 113.281 226.227 113.273 226.523 113.258C226.82 113.227 227.102 113.188 227.367 113.141V118.789C226.695 119.008 225.992 119.172 225.258 119.281C224.523 119.406 223.742 119.469 222.914 119.469C221.227 119.469 219.781 119.203 218.578 118.672C217.391 118.141 216.484 117.305 215.859 116.164C215.234 115.023 214.922 113.539 214.922 111.711V87.3359ZM237.914 116.023L244.477 93.6406H252.961L242.766 122.773C242.547 123.414 242.258 124.102 241.898 124.836C241.539 125.586 241.047 126.297 240.422 126.969C239.797 127.641 238.992 128.188 238.008 128.609C237.039 129.031 235.836 129.242 234.398 129.242C233.633 129.242 233.07 129.203 232.711 129.125C232.367 129.062 231.836 128.945 231.117 128.773V123.125C231.32 123.125 231.492 123.125 231.633 123.125C231.789 123.125 231.961 123.125 232.148 123.125C232.992 123.125 233.664 123.039 234.164 122.867C234.68 122.695 235.07 122.445 235.336 122.117C235.617 121.789 235.836 121.391 235.992 120.922L237.914 116.023ZM236.25 93.6406L241.242 111.383L242.109 119.75H236.812L227.789 93.6406H236.25ZM262.992 98.5156V128.75H255.094V93.6406H262.453L262.992 98.5156ZM278.555 106.016V106.508C278.555 108.352 278.344 110.062 277.922 111.641C277.5 113.219 276.875 114.594 276.047 115.766C275.219 116.938 274.188 117.852 272.953 118.508C271.734 119.148 270.32 119.469 268.711 119.469C267.195 119.469 265.891 119.133 264.797 118.461C263.703 117.789 262.789 116.859 262.055 115.672C261.32 114.484 260.727 113.125 260.273 111.594C259.82 110.062 259.461 108.445 259.195 106.742V106.109C259.461 104.281 259.82 102.586 260.273 101.023C260.727 99.4453 261.32 98.0703 262.055 96.8984C262.789 95.7266 263.695 94.8125 264.773 94.1562C265.867 93.5 267.172 93.1719 268.688 93.1719C270.297 93.1719 271.711 93.4766 272.93 94.0859C274.164 94.6953 275.195 95.5703 276.023 96.7109C276.867 97.8359 277.5 99.1875 277.922 100.766C278.344 102.344 278.555 104.094 278.555 106.016ZM270.656 106.508V106.016C270.656 105.031 270.586 104.133 270.445 103.32C270.305 102.492 270.078 101.773 269.766 101.164C269.469 100.555 269.07 100.086 268.57 99.7578C268.07 99.4297 267.453 99.2656 266.719 99.2656C265.875 99.2656 265.164 99.3984 264.586 99.6641C264.023 99.9141 263.57 100.305 263.227 100.836C262.898 101.352 262.664 102 262.523 102.781C262.398 103.547 262.344 104.445 262.359 105.477V107.398C262.328 108.586 262.445 109.633 262.711 110.539C262.977 111.43 263.438 112.125 264.094 112.625C264.75 113.125 265.641 113.375 266.766 113.375C267.516 113.375 268.141 113.203 268.641 112.859C269.141 112.5 269.539 112.008 269.836 111.383C270.133 110.742 270.344 110.008 270.469 109.18C270.594 108.352 270.656 107.461 270.656 106.508ZM290.414 93.6406V119H282.492V93.6406H290.414ZM282.023 87.1016C282.023 85.9766 282.43 85.0547 283.242 84.3359C284.055 83.6172 285.109 83.2578 286.406 83.2578C287.703 83.2578 288.758 83.6172 289.57 84.3359C290.383 85.0547 290.789 85.9766 290.789 87.1016C290.789 88.2266 290.383 89.1484 289.57 89.8672C288.758 90.5859 287.703 90.9453 286.406 90.9453C285.109 90.9453 284.055 90.5859 283.242 89.8672C282.43 89.1484 282.023 88.2266 282.023 87.1016ZM303.047 99.0547V119H295.148V93.6406H302.555L303.047 99.0547ZM302.109 105.453L300.258 105.5C300.258 103.562 300.492 101.836 300.961 100.32C301.43 98.7891 302.094 97.4922 302.953 96.4297C303.812 95.3672 304.836 94.5625 306.023 94.0156C307.227 93.4531 308.562 93.1719 310.031 93.1719C311.203 93.1719 312.273 93.3438 313.242 93.6875C314.227 94.0312 315.07 94.5859 315.773 95.3516C316.492 96.1172 317.039 97.1328 317.414 98.3984C317.805 99.6484 318 101.195 318 103.039V119H310.055V103.016C310.055 102 309.914 101.227 309.633 100.695C309.352 100.148 308.945 99.7734 308.414 99.5703C307.883 99.3672 307.234 99.2656 306.469 99.2656C305.656 99.2656 304.969 99.4219 304.406 99.7344C303.844 100.047 303.391 100.484 303.047 101.047C302.719 101.594 302.477 102.242 302.32 102.992C302.18 103.742 302.109 104.562 302.109 105.453ZM338.32 93.6406H345.492V118.016C345.492 120.359 344.953 122.344 343.875 123.969C342.797 125.609 341.289 126.852 339.352 127.695C337.43 128.555 335.18 128.984 332.602 128.984C331.461 128.984 330.297 128.836 329.109 128.539C327.922 128.258 326.812 127.836 325.781 127.273C324.75 126.711 323.883 126.016 323.18 125.188L326.484 120.547C327.125 121.266 327.93 121.875 328.898 122.375C329.867 122.891 331.008 123.148 332.32 123.148C333.461 123.148 334.414 122.945 335.18 122.539C335.961 122.133 336.555 121.539 336.961 120.758C337.367 119.992 337.57 119.062 337.57 117.969V99.6406L338.32 93.6406ZM321.469 106.625V106.133C321.469 104.211 321.703 102.461 322.172 100.883C322.656 99.2891 323.344 97.9219 324.234 96.7812C325.141 95.625 326.234 94.7344 327.516 94.1094C328.797 93.4844 330.242 93.1719 331.852 93.1719C333.586 93.1719 335.008 93.5078 336.117 94.1797C337.242 94.8359 338.141 95.7578 338.812 96.9453C339.5 98.1328 340.031 99.5234 340.406 101.117C340.797 102.695 341.125 104.398 341.391 106.227V106.812C341.125 108.531 340.758 110.156 340.289 111.688C339.836 113.203 339.242 114.547 338.508 115.719C337.773 116.891 336.852 117.812 335.742 118.484C334.648 119.141 333.336 119.469 331.805 119.469C330.211 119.469 328.773 119.148 327.492 118.508C326.227 117.867 325.141 116.969 324.234 115.812C323.344 114.656 322.656 113.297 322.172 111.734C321.703 110.172 321.469 108.469 321.469 106.625ZM329.367 106.133V106.625C329.367 107.578 329.453 108.461 329.625 109.273C329.812 110.086 330.094 110.805 330.469 111.43C330.844 112.039 331.305 112.516 331.852 112.859C332.414 113.203 333.07 113.375 333.82 113.375C334.961 113.375 335.883 113.133 336.586 112.648C337.289 112.164 337.797 111.477 338.109 110.586C338.422 109.695 338.555 108.648 338.508 107.445V105.594C338.539 104.562 338.469 103.656 338.297 102.875C338.125 102.078 337.852 101.414 337.477 100.883C337.117 100.352 336.633 99.9531 336.023 99.6875C335.43 99.4062 334.711 99.2656 333.867 99.2656C333.133 99.2656 332.484 99.4375 331.922 99.7812C331.359 100.125 330.891 100.609 330.516 101.234C330.141 101.844 329.852 102.57 329.648 103.414C329.461 104.242 329.367 105.148 329.367 106.133Z" fill="black"/>
<path d="M1134 0H1348C1356.28 0 1363 6.71573 1363 15V148C1363 156.284 1356.28 163 1348 163H1134V0Z" fill="#23BA32"/>
<path fill-rule="evenodd" clip-rule="evenodd" d="M1202.75 46.5018C1202.75 45.3973 1203.65 44.5018 1204.75 44.5018H1292.25C1293.35 44.5018 1294.25 45.3973 1294.25 46.5018V116.498C1294.25 117.603 1293.35 118.498 1292.25 118.498H1204.75C1203.65 118.498 1202.75 117.603 1202.75 116.498V46.5018ZM1206.75 48.5018V52.9963H1290.25V48.5018H1206.75ZM1290.25 56.9963H1235.19V114.498H1290.25V56.9963ZM1231.19 114.498V56.9963H1206.75V114.498H1231.19Z" fill="white"/>
<path fill-rule="evenodd" clip-rule="evenodd" d="M1209.72 62.3022C1209.72 61.1976 1210.62 60.3022 1211.72 60.3022H1225.72C1226.83 60.3022 1227.72 61.1976 1227.72 62.3022V81.6974C1227.72 82.802 1226.83 83.6974 1225.72 83.6974H1211.72C1210.62 83.6974 1209.72 82.802 1209.72 81.6974V62.3022ZM1213.72 64.3022V79.6974H1223.72V64.3022H1213.72ZM1239.33 63.1982C1239.33 62.0936 1240.22 61.1982 1241.33 61.1982H1284.25C1285.36 61.1982 1286.25 62.0936 1286.25 63.1982V109.407C1286.25 110.511 1285.36 111.407 1284.25 111.407H1241.33C1240.22 111.407 1239.33 110.511 1239.33 109.407V63.1982ZM1243.33 65.1982V107.407H1282.25V65.1982H1243.33ZM1209.56 93.4381C1209.56 92.3336 1210.46 91.4381 1211.56 91.4381H1220.48C1221.59 91.4381 1222.48 92.3336 1222.48 93.4381C1222.48 94.5427 1221.59 95.4381 1220.48 95.4381H1211.56C1210.46 95.4381 1209.56 94.5427 1209.56 93.4381ZM1209.56 100.438C1209.56 99.3335 1210.46 98.4381 1211.56 98.4381H1226.1C1227.21 98.4381 1228.1 99.3335 1228.1 100.438C1228.1 101.543 1227.21 102.438 1226.1 102.438H1211.56C1210.46 102.438 1209.56 101.543 1209.56 100.438ZM1209.56 107.438C1209.56 106.334 1210.46 105.438 1211.56 105.438H1220.48C1221.59 105.438 1222.48 106.334 1222.48 107.438C1222.48 108.543 1221.59 109.438 1220.48 109.438H1211.56C1210.46 109.438 1209.56 108.543 1209.56 107.438Z" fill="white"/>
</svg>
