<svg width="1363" height="163" viewBox="0 0 1363 163" fill="none" xmlns="http://www.w3.org/2000/svg">
<path d="M0 15C0 6.71573 6.71573 0 15 0H37V163H15C6.71573 163 0 156.284 0 148V15Z" fill="#424242"/>
<rect width="1097" height="163" transform="translate(37)" fill="#F0F0F0"/>
<path d="M101.906 53.9219L94.3945 51.2383V48.0859L104.602 52.375V54.6367L101.906 53.9219ZM94.3945 56.1719L101.918 53.4297L104.602 52.7852V55.0352L94.3945 59.3242V56.1719ZM116.414 43.9375V61H112.898V43.9375H116.414ZM123.211 51.2266V53.9688H115.453V51.2266H123.211ZM124.031 43.9375V46.6914H115.453V43.9375H124.031ZM129.422 43V61H126.035V43H129.422ZM131.672 54.7891V54.543C131.672 53.6133 131.805 52.7578 132.07 51.9766C132.336 51.1875 132.723 50.5039 133.23 49.9258C133.738 49.3477 134.363 48.8984 135.105 48.5781C135.848 48.25 136.699 48.0859 137.66 48.0859C138.621 48.0859 139.477 48.25 140.227 48.5781C140.977 48.8984 141.605 49.3477 142.113 49.9258C142.629 50.5039 143.02 51.1875 143.285 51.9766C143.551 52.7578 143.684 53.6133 143.684 54.543V54.7891C143.684 55.7109 143.551 56.5664 143.285 57.3555C143.02 58.1367 142.629 58.8203 142.113 59.4062C141.605 59.9844 140.98 60.4336 140.238 60.7539C139.496 61.0742 138.645 61.2344 137.684 61.2344C136.723 61.2344 135.867 61.0742 135.117 60.7539C134.375 60.4336 133.746 59.9844 133.23 59.4062C132.723 58.8203 132.336 58.1367 132.07 57.3555C131.805 56.5664 131.672 55.7109 131.672 54.7891ZM135.047 54.543V54.7891C135.047 55.3203 135.094 55.8164 135.188 56.2773C135.281 56.7383 135.43 57.1445 135.633 57.4961C135.844 57.8398 136.117 58.1094 136.453 58.3047C136.789 58.5 137.199 58.5977 137.684 58.5977C138.152 58.5977 138.555 58.5 138.891 58.3047C139.227 58.1094 139.496 57.8398 139.699 57.4961C139.902 57.1445 140.051 56.7383 140.145 56.2773C140.246 55.8164 140.297 55.3203 140.297 54.7891V54.543C140.297 54.0273 140.246 53.543 140.145 53.0898C140.051 52.6289 139.898 52.2227 139.688 51.8711C139.484 51.5117 139.215 51.2305 138.879 51.0273C138.543 50.8242 138.137 50.7227 137.66 50.7227C137.184 50.7227 136.777 50.8242 136.441 51.0273C136.113 51.2305 135.844 51.5117 135.633 51.8711C135.43 52.2227 135.281 52.6289 135.188 53.0898C135.094 53.543 135.047 54.0273 135.047 54.543ZM149.133 51.0859V61H145.758V48.3203H148.934L149.133 51.0859ZM152.953 48.2383L152.895 51.3672C152.73 51.3438 152.531 51.3242 152.297 51.3086C152.07 51.2852 151.863 51.2734 151.676 51.2734C151.199 51.2734 150.785 51.3359 150.434 51.4609C150.09 51.5781 149.801 51.7539 149.566 51.9883C149.34 52.2227 149.168 52.5078 149.051 52.8438C148.941 53.1797 148.879 53.5625 148.863 53.9922L148.184 53.7812C148.184 52.9609 148.266 52.207 148.43 51.5195C148.594 50.8242 148.832 50.2188 149.145 49.7031C149.465 49.1875 149.855 48.7891 150.316 48.5078C150.777 48.2266 151.305 48.0859 151.898 48.0859C152.086 48.0859 152.277 48.1016 152.473 48.1328C152.668 48.1562 152.828 48.1914 152.953 48.2383ZM160.992 58.1406V52.4922C160.992 52.0859 160.926 51.7383 160.793 51.4492C160.66 51.1523 160.453 50.9219 160.172 50.7578C159.898 50.5938 159.543 50.5117 159.105 50.5117C158.73 50.5117 158.406 50.5781 158.133 50.7109C157.859 50.8359 157.648 51.0195 157.5 51.2617C157.352 51.4961 157.277 51.7734 157.277 52.0938H153.902C153.902 51.5547 154.027 51.043 154.277 50.5586C154.527 50.0742 154.891 49.6484 155.367 49.2812C155.844 48.9062 156.41 48.6133 157.066 48.4023C157.73 48.1914 158.473 48.0859 159.293 48.0859C160.277 48.0859 161.152 48.25 161.918 48.5781C162.684 48.9062 163.285 49.3984 163.723 50.0547C164.168 50.7109 164.391 51.5312 164.391 52.5156V57.9414C164.391 58.6367 164.434 59.207 164.52 59.6523C164.605 60.0898 164.73 60.4727 164.895 60.8008V61H161.484C161.32 60.6562 161.195 60.2266 161.109 59.7109C161.031 59.1875 160.992 58.6641 160.992 58.1406ZM161.438 53.2773L161.461 55.1875H159.574C159.129 55.1875 158.742 55.2383 158.414 55.3398C158.086 55.4414 157.816 55.5859 157.605 55.7734C157.395 55.9531 157.238 56.1641 157.137 56.4062C157.043 56.6484 156.996 56.9141 156.996 57.2031C156.996 57.4922 157.062 57.7539 157.195 57.9883C157.328 58.2148 157.52 58.3945 157.77 58.5273C158.02 58.6523 158.312 58.7148 158.648 58.7148C159.156 58.7148 159.598 58.6133 159.973 58.4102C160.348 58.207 160.637 57.957 160.84 57.6602C161.051 57.3633 161.16 57.082 161.168 56.8164L162.059 58.2461C161.934 58.5664 161.762 58.8984 161.543 59.2422C161.332 59.5859 161.062 59.9102 160.734 60.2148C160.406 60.5117 160.012 60.7578 159.551 60.9531C159.09 61.1406 158.543 61.2344 157.91 61.2344C157.105 61.2344 156.375 61.0742 155.719 60.7539C155.07 60.4258 154.555 59.9766 154.172 59.4062C153.797 58.8281 153.609 58.1719 153.609 57.4375C153.609 56.7734 153.734 56.1836 153.984 55.668C154.234 55.1523 154.602 54.7188 155.086 54.3672C155.578 54.0078 156.191 53.7383 156.926 53.5586C157.66 53.3711 158.512 53.2773 159.48 53.2773H161.438ZM171.117 58.5391L173.93 48.3203H177.457L173.18 61H171.047L171.117 58.5391ZM169.184 48.3203L172.008 58.5508L172.066 61H169.922L165.645 48.3203H169.184ZM184.641 61.2344C183.656 61.2344 182.773 61.0781 181.992 60.7656C181.211 60.4453 180.547 60.0039 180 59.4414C179.461 58.8789 179.047 58.2266 178.758 57.4844C178.469 56.7344 178.324 55.9375 178.324 55.0938V54.625C178.324 53.6641 178.461 52.7852 178.734 51.9883C179.008 51.1914 179.398 50.5 179.906 49.9141C180.422 49.3281 181.047 48.8789 181.781 48.5664C182.516 48.2461 183.344 48.0859 184.266 48.0859C185.164 48.0859 185.961 48.2344 186.656 48.5312C187.352 48.8281 187.934 49.25 188.402 49.7969C188.879 50.3438 189.238 51 189.48 51.7656C189.723 52.5234 189.844 53.3672 189.844 54.2969V55.7031H179.766V53.4531H186.527V53.1953C186.527 52.7266 186.441 52.3086 186.27 51.9414C186.105 51.5664 185.855 51.2695 185.52 51.0508C185.184 50.832 184.754 50.7227 184.23 50.7227C183.785 50.7227 183.402 50.8203 183.082 51.0156C182.762 51.2109 182.5 51.4844 182.297 51.8359C182.102 52.1875 181.953 52.6016 181.852 53.0781C181.758 53.5469 181.711 54.0625 181.711 54.625V55.0938C181.711 55.6016 181.781 56.0703 181.922 56.5C182.07 56.9297 182.277 57.3008 182.543 57.6133C182.816 57.9258 183.145 58.168 183.527 58.3398C183.918 58.5117 184.359 58.5977 184.852 58.5977C185.461 58.5977 186.027 58.4805 186.551 58.2461C187.082 58.0039 187.539 57.6406 187.922 57.1562L189.562 58.9375C189.297 59.3203 188.934 59.6875 188.473 60.0391C188.02 60.3906 187.473 60.6797 186.832 60.9062C186.191 61.125 185.461 61.2344 184.641 61.2344ZM195.141 51.0859V61H191.766V48.3203H194.941L195.141 51.0859ZM198.961 48.2383L198.902 51.3672C198.738 51.3438 198.539 51.3242 198.305 51.3086C198.078 51.2852 197.871 51.2734 197.684 51.2734C197.207 51.2734 196.793 51.3359 196.441 51.4609C196.098 51.5781 195.809 51.7539 195.574 51.9883C195.348 52.2227 195.176 52.5078 195.059 52.8438C194.949 53.1797 194.887 53.5625 194.871 53.9922L194.191 53.7812C194.191 52.9609 194.273 52.207 194.438 51.5195C194.602 50.8242 194.84 50.2188 195.152 49.7031C195.473 49.1875 195.863 48.7891 196.324 48.5078C196.785 48.2266 197.312 48.0859 197.906 48.0859C198.094 48.0859 198.285 48.1016 198.48 48.1328C198.676 48.1562 198.836 48.1914 198.961 48.2383ZM207.352 48.3203V50.7109H199.969V48.3203H207.352ZM201.797 45.1914H205.172V57.1797C205.172 57.5469 205.219 57.8281 205.312 58.0234C205.414 58.2188 205.562 58.3555 205.758 58.4336C205.953 58.5039 206.199 58.5391 206.496 58.5391C206.707 58.5391 206.895 58.5312 207.059 58.5156C207.23 58.4922 207.375 58.4688 207.492 58.4453L207.504 60.9297C207.215 61.0234 206.902 61.0977 206.566 61.1523C206.23 61.207 205.859 61.2344 205.453 61.2344C204.711 61.2344 204.062 61.1133 203.508 60.8711C202.961 60.6211 202.539 60.2227 202.242 59.6758C201.945 59.1289 201.797 58.4102 201.797 57.5195V45.1914Z" fill="#888888"/>
<path d="M112.125 84.875V119H103.898V84.875H112.125ZM122.391 84.875V91.2266H93.8672V84.875H122.391ZM135.68 119.469C133.617 119.469 131.773 119.148 130.148 118.508C128.523 117.852 127.148 116.953 126.023 115.812C124.914 114.672 124.062 113.359 123.469 111.875C122.891 110.391 122.602 108.82 122.602 107.164V106.273C122.602 104.414 122.859 102.695 123.375 101.117C123.891 99.5234 124.656 98.1328 125.672 96.9453C126.688 95.7578 127.961 94.8359 129.492 94.1797C131.023 93.5078 132.805 93.1719 134.836 93.1719C136.633 93.1719 138.242 93.4609 139.664 94.0391C141.086 94.6172 142.289 95.4453 143.273 96.5234C144.273 97.6016 145.031 98.9062 145.547 100.438C146.078 101.969 146.344 103.688 146.344 105.594V108.805H125.625V103.859H138.633V103.25C138.648 102.406 138.5 101.688 138.188 101.094C137.891 100.5 137.453 100.047 136.875 99.7344C136.297 99.4219 135.594 99.2656 134.766 99.2656C133.906 99.2656 133.195 99.4531 132.633 99.8281C132.086 100.203 131.656 100.719 131.344 101.375C131.047 102.016 130.836 102.758 130.711 103.602C130.586 104.445 130.523 105.336 130.523 106.273V107.164C130.523 108.102 130.648 108.953 130.898 109.719C131.164 110.484 131.539 111.141 132.023 111.688C132.523 112.219 133.117 112.633 133.805 112.93C134.508 113.227 135.305 113.375 136.195 113.375C137.273 113.375 138.336 113.172 139.383 112.766C140.43 112.359 141.328 111.688 142.078 110.75L145.664 115.016C145.148 115.75 144.414 116.461 143.461 117.148C142.523 117.836 141.398 118.398 140.086 118.836C138.773 119.258 137.305 119.469 135.68 119.469ZM160.266 113.375C161 113.375 161.625 113.242 162.141 112.977C162.672 112.695 163.07 112.305 163.336 111.805C163.617 111.289 163.75 110.672 163.734 109.953H171.164C171.18 111.859 170.711 113.531 169.758 114.969C168.82 116.391 167.539 117.5 165.914 118.297C164.305 119.078 162.484 119.469 160.453 119.469C158.469 119.469 156.734 119.148 155.25 118.508C153.766 117.852 152.523 116.945 151.523 115.789C150.539 114.617 149.797 113.25 149.297 111.688C148.812 110.125 148.57 108.43 148.57 106.602V106.062C148.57 104.234 148.812 102.539 149.297 100.977C149.797 99.3984 150.539 98.0312 151.523 96.875C152.523 95.7031 153.758 94.7969 155.227 94.1562C156.711 93.5 158.438 93.1719 160.406 93.1719C162.516 93.1719 164.375 93.5703 165.984 94.3672C167.609 95.1641 168.883 96.3203 169.805 97.8359C170.727 99.3516 171.18 101.188 171.164 103.344H163.734C163.75 102.578 163.633 101.891 163.383 101.281C163.133 100.672 162.742 100.188 162.211 99.8281C161.695 99.4531 161.031 99.2656 160.219 99.2656C159.406 99.2656 158.75 99.4453 158.25 99.8047C157.75 100.164 157.367 100.664 157.102 101.305C156.852 101.93 156.68 102.648 156.586 103.461C156.508 104.273 156.469 105.141 156.469 106.062V106.602C156.469 107.539 156.508 108.422 156.586 109.25C156.68 110.062 156.859 110.781 157.125 111.406C157.391 112.016 157.773 112.5 158.273 112.859C158.773 113.203 159.438 113.375 160.266 113.375ZM182.273 83V119H174.375V83H182.273ZM181.336 105.453L179.484 105.5C179.484 103.719 179.703 102.078 180.141 100.578C180.578 99.0781 181.203 97.7734 182.016 96.6641C182.828 95.5547 183.805 94.6953 184.945 94.0859C186.086 93.4766 187.352 93.1719 188.742 93.1719C189.992 93.1719 191.133 93.3516 192.164 93.7109C193.211 94.0703 194.109 94.6484 194.859 95.4453C195.625 96.2422 196.211 97.2812 196.617 98.5625C197.039 99.8438 197.25 101.406 197.25 103.25V119H189.305V103.203C189.305 102.172 189.156 101.375 188.859 100.812C188.578 100.234 188.172 99.8359 187.641 99.6172C187.109 99.3828 186.461 99.2656 185.695 99.2656C184.773 99.2656 184.023 99.4219 183.445 99.7344C182.867 100.047 182.422 100.484 182.109 101.047C181.812 101.594 181.609 102.242 181.5 102.992C181.391 103.742 181.336 104.562 181.336 105.453ZM231.539 109.93C231.539 109.398 231.461 108.922 231.305 108.5C231.148 108.062 230.859 107.656 230.438 107.281C230.016 106.906 229.406 106.531 228.609 106.156C227.828 105.766 226.797 105.359 225.516 104.938C224.016 104.438 222.57 103.875 221.18 103.25C219.789 102.609 218.547 101.867 217.453 101.023C216.359 100.164 215.492 99.1641 214.852 98.0234C214.211 96.8672 213.891 95.5234 213.891 93.9922C213.891 92.5234 214.219 91.2031 214.875 90.0312C215.531 88.8438 216.445 87.8359 217.617 87.0078C218.805 86.1641 220.195 85.5234 221.789 85.0859C223.383 84.6328 225.125 84.4062 227.016 84.4062C229.516 84.4062 231.719 84.8438 233.625 85.7188C235.547 86.5781 237.047 87.8047 238.125 89.3984C239.219 90.9766 239.766 92.8438 239.766 95H231.586C231.586 94.1406 231.406 93.3828 231.047 92.7266C230.703 92.0703 230.18 91.5547 229.477 91.1797C228.773 90.8047 227.891 90.6172 226.828 90.6172C225.797 90.6172 224.93 90.7734 224.227 91.0859C223.523 91.3984 222.992 91.8203 222.633 92.3516C222.273 92.8672 222.094 93.4375 222.094 94.0625C222.094 94.5781 222.234 95.0469 222.516 95.4688C222.812 95.875 223.227 96.2578 223.758 96.6172C224.305 96.9766 224.961 97.3203 225.727 97.6484C226.508 97.9766 227.383 98.2969 228.352 98.6094C230.164 99.1875 231.773 99.8359 233.18 100.555C234.602 101.258 235.797 102.062 236.766 102.969C237.75 103.859 238.492 104.875 238.992 106.016C239.508 107.156 239.766 108.445 239.766 109.883C239.766 111.414 239.469 112.773 238.875 113.961C238.281 115.148 237.43 116.156 236.32 116.984C235.211 117.797 233.883 118.414 232.336 118.836C230.789 119.258 229.062 119.469 227.156 119.469C225.406 119.469 223.68 119.25 221.977 118.812C220.289 118.359 218.758 117.672 217.383 116.75C216.008 115.812 214.906 114.617 214.078 113.164C213.266 111.695 212.859 109.953 212.859 107.938H221.109C221.109 108.938 221.242 109.781 221.508 110.469C221.773 111.156 222.164 111.711 222.68 112.133C223.195 112.539 223.828 112.836 224.578 113.023C225.328 113.195 226.188 113.281 227.156 113.281C228.203 113.281 229.047 113.133 229.688 112.836C230.328 112.523 230.797 112.117 231.094 111.617C231.391 111.102 231.539 110.539 231.539 109.93ZM256.992 93.6406V99.125H241.711V93.6406H256.992ZM244.922 87.3359H252.82V110.727C252.82 111.398 252.898 111.922 253.055 112.297C253.211 112.656 253.477 112.914 253.852 113.07C254.242 113.211 254.758 113.281 255.398 113.281C255.852 113.281 256.227 113.273 256.523 113.258C256.82 113.227 257.102 113.188 257.367 113.141V118.789C256.695 119.008 255.992 119.172 255.258 119.281C254.523 119.406 253.742 119.469 252.914 119.469C251.227 119.469 249.781 119.203 248.578 118.672C247.391 118.141 246.484 117.305 245.859 116.164C245.234 115.023 244.922 113.539 244.922 111.711V87.3359ZM273.305 112.625V102.172C273.305 101.453 273.203 100.836 273 100.32C272.797 99.8047 272.477 99.4062 272.039 99.125C271.602 98.8281 271.016 98.6797 270.281 98.6797C269.688 98.6797 269.18 98.7812 268.758 98.9844C268.336 99.1875 268.016 99.4922 267.797 99.8984C267.578 100.305 267.469 100.82 267.469 101.445H259.57C259.57 100.273 259.828 99.1875 260.344 98.1875C260.875 97.1719 261.625 96.2891 262.594 95.5391C263.578 94.7891 264.75 94.2109 266.109 93.8047C267.484 93.3828 269.016 93.1719 270.703 93.1719C272.719 93.1719 274.516 93.5078 276.094 94.1797C277.688 94.8516 278.945 95.8594 279.867 97.2031C280.789 98.5312 281.25 100.203 281.25 102.219V112.602C281.25 114.258 281.344 115.516 281.531 116.375C281.719 117.219 281.984 117.961 282.328 118.602V119H274.406C274.031 118.219 273.75 117.266 273.562 116.141C273.391 115 273.305 113.828 273.305 112.625ZM274.266 103.508L274.312 107.727H270.82C270.086 107.727 269.461 107.828 268.945 108.031C268.445 108.234 268.039 108.516 267.727 108.875C267.43 109.219 267.211 109.609 267.07 110.047C266.945 110.484 266.883 110.945 266.883 111.43C266.883 111.898 266.992 112.32 267.211 112.695C267.445 113.055 267.758 113.336 268.148 113.539C268.539 113.742 268.977 113.844 269.461 113.844C270.336 113.844 271.078 113.68 271.688 113.352C272.312 113.008 272.789 112.594 273.117 112.109C273.445 111.625 273.609 111.172 273.609 110.75L275.344 113.984C275.031 114.609 274.672 115.242 274.266 115.883C273.875 116.523 273.383 117.117 272.789 117.664C272.211 118.195 271.5 118.633 270.656 118.977C269.812 119.305 268.789 119.469 267.586 119.469C266.023 119.469 264.586 119.148 263.273 118.508C261.977 117.867 260.938 116.977 260.156 115.836C259.375 114.68 258.984 113.352 258.984 111.852C258.984 110.539 259.219 109.367 259.688 108.336C260.172 107.305 260.898 106.43 261.867 105.711C262.836 104.992 264.07 104.445 265.57 104.07C267.07 103.695 268.836 103.508 270.867 103.508H274.266ZM296.344 113.375C297.078 113.375 297.703 113.242 298.219 112.977C298.75 112.695 299.148 112.305 299.414 111.805C299.695 111.289 299.828 110.672 299.812 109.953H307.242C307.258 111.859 306.789 113.531 305.836 114.969C304.898 116.391 303.617 117.5 301.992 118.297C300.383 119.078 298.562 119.469 296.531 119.469C294.547 119.469 292.812 119.148 291.328 118.508C289.844 117.852 288.602 116.945 287.602 115.789C286.617 114.617 285.875 113.25 285.375 111.688C284.891 110.125 284.648 108.43 284.648 106.602V106.062C284.648 104.234 284.891 102.539 285.375 100.977C285.875 99.3984 286.617 98.0312 287.602 96.875C288.602 95.7031 289.836 94.7969 291.305 94.1562C292.789 93.5 294.516 93.1719 296.484 93.1719C298.594 93.1719 300.453 93.5703 302.062 94.3672C303.688 95.1641 304.961 96.3203 305.883 97.8359C306.805 99.3516 307.258 101.188 307.242 103.344H299.812C299.828 102.578 299.711 101.891 299.461 101.281C299.211 100.672 298.82 100.188 298.289 99.8281C297.773 99.4531 297.109 99.2656 296.297 99.2656C295.484 99.2656 294.828 99.4453 294.328 99.8047C293.828 100.164 293.445 100.664 293.18 101.305C292.93 101.93 292.758 102.648 292.664 103.461C292.586 104.273 292.547 105.141 292.547 106.062V106.602C292.547 107.539 292.586 108.422 292.664 109.25C292.758 110.062 292.938 110.781 293.203 111.406C293.469 112.016 293.852 112.5 294.352 112.859C294.852 113.203 295.516 113.375 296.344 113.375ZM318.586 82.9766V119H310.688V82.9766H318.586ZM334.805 93.6406L323.789 106.555L318.023 112.32L314.578 107.305L319.383 101.047L325.336 93.6406H334.805ZM326.344 119L319.57 107.445L325.406 103.297L335.391 119H326.344Z" fill="black"/>
<path d="M1134 0H1348C1356.28 0 1363 6.71573 1363 15V148C1363 156.284 1356.28 163 1348 163H1134V0Z" fill="#23BA32"/>
<path fill-rule="evenodd" clip-rule="evenodd" d="M1218.75 53C1218.62 53 1218.49 53.0527 1218.4 53.1464C1218.3 53.2402 1218.25 53.3674 1218.25 53.5V109.5C1218.25 109.633 1218.3 109.76 1218.4 109.854C1218.49 109.947 1218.62 110 1218.75 110H1278.25C1278.38 110 1278.51 109.947 1278.6 109.854C1278.7 109.76 1278.75 109.633 1278.75 109.5V64C1278.75 63.8674 1278.7 63.7402 1278.6 63.6464C1278.51 63.5527 1278.38 63.5 1278.25 63.5H1248.5C1247.61 63.5 1246.77 63.1045 1246.2 62.4206L1238.34 53H1218.75ZM1214.15 48.9038C1215.37 47.6848 1217.03 47 1218.75 47H1239.75C1240.64 47 1241.48 47.3955 1242.05 48.0794L1249.91 57.5H1278.25C1279.97 57.5 1281.63 58.1848 1282.85 59.4038C1284.07 60.6228 1284.75 62.2761 1284.75 64V109.5C1284.75 111.224 1284.07 112.877 1282.85 114.096C1281.63 115.315 1279.97 116 1278.25 116H1218.75C1217.03 116 1215.37 115.315 1214.15 114.096C1212.93 112.877 1212.25 111.224 1212.25 109.5V53.5C1212.25 51.7761 1212.93 50.1228 1214.15 48.9038Z" fill="white"/>
<path fill-rule="evenodd" clip-rule="evenodd" d="M1243.97 75.5251C1245.34 76.892 1245.34 79.108 1243.97 80.4749L1237.7 86.75L1243.97 93.0251C1245.34 94.392 1245.34 96.608 1243.97 97.9749C1242.61 99.3417 1240.39 99.3417 1239.03 97.9749L1230.28 89.2249C1228.91 87.858 1228.91 85.642 1230.28 84.2751L1239.03 75.5251C1240.39 74.1583 1242.61 74.1583 1243.97 75.5251Z" fill="white"/>
<path fill-rule="evenodd" clip-rule="evenodd" d="M1252.28 97.9749C1250.91 96.608 1250.91 94.392 1252.28 93.0251L1258.55 86.75L1252.28 80.4749C1250.91 79.108 1250.91 76.892 1252.28 75.5251C1253.64 74.1583 1255.86 74.1583 1257.22 75.5251L1265.97 84.2751C1267.34 85.642 1267.34 87.858 1265.97 89.2249L1257.22 97.9749C1255.86 99.3417 1253.64 99.3417 1252.28 97.9749Z" fill="white"/>
</svg>
